<svg width="269" height="80" viewBox="0 0 269 80" fill="none" xmlns="http://www.w3.org/2000/svg">
<path fill-rule="evenodd" clip-rule="evenodd" d="M77.7399 60.2826H61.8941V46.5728H57.293V78.3632H61.8941V64.6334H77.7399V78.3632H82.3609V46.5728H77.7399V60.2826Z" fill="white"/>
<path fill-rule="evenodd" clip-rule="evenodd" d="M104.879 55.5589C103.177 54.4264 101.114 53.8601 98.6946 53.8601C96.2749 53.8601 94.3431 54.3837 92.5985 55.428C90.8539 56.4723 89.4895 57.952 88.5051 59.8671C87.5378 61.7793 87.0527 64.0386 87.0527 66.6452C87.0527 69.1037 87.5435 71.2663 88.5278 73.1358C89.5263 74.9911 90.9106 76.4395 92.6864 77.4838C94.4764 78.5139 96.5529 79.029 98.9158 79.029C101.279 79.029 103.31 78.4485 105.188 77.2847C107.066 76.1066 108.467 74.4505 109.392 72.3163L104.881 70.8822C104.294 72.1029 103.472 73.0448 102.416 73.7078C101.375 74.3566 100.136 74.6781 98.6974 74.6781C96.5103 74.6781 94.8395 73.9639 93.6793 72.5354C92.7205 71.3432 92.1645 69.7411 91.9999 67.7435H109.701C109.877 64.8894 109.539 62.4224 108.688 60.348C107.851 58.2736 106.583 56.6772 104.881 55.5561L104.879 55.5589ZM93.6764 60.1288C94.8367 58.6719 96.567 57.9435 98.8704 57.9435C100.953 57.9435 102.501 58.6065 103.514 59.9297C104.289 60.9256 104.776 62.3313 104.986 64.1468H92.1021C92.346 62.4935 92.868 61.1476 93.6764 60.1288Z" fill="white"/>
<path fill-rule="evenodd" clip-rule="evenodd" d="M132.715 58.4073C131.98 56.8337 130.823 55.6841 129.237 54.9642C127.669 54.2272 125.819 53.8601 123.692 53.8601C120.949 53.8601 118.747 54.4634 117.088 55.6699C115.445 56.8764 114.331 58.504 113.743 60.55L118.035 61.876C118.447 60.5358 119.173 59.5797 120.214 59.0049C121.255 58.4158 122.401 58.1227 123.646 58.1227C125.626 58.1227 127.022 58.578 127.828 59.4914C128.545 60.274 128.937 61.4293 129.008 62.9516C128.106 63.0797 127.201 63.2049 126.287 63.3329C124.821 63.5378 123.419 63.7598 122.083 63.9959C120.747 64.2321 119.553 64.5025 118.495 64.8126C117.278 65.211 116.251 65.7317 115.414 66.3805C114.577 67.0122 113.948 67.7862 113.522 68.6996C113.097 69.6131 112.884 70.6716 112.884 71.8781C112.884 73.1728 113.184 74.3651 113.786 75.455C114.401 76.5306 115.303 77.3985 116.492 78.0615C117.681 78.7103 119.156 79.0318 120.914 79.0318C123.13 79.0318 124.994 78.5908 126.506 77.7058C127.649 77.0342 128.639 76.1009 129.476 74.9086V78.3688H133.546V63.6886C133.546 62.687 133.501 61.7537 133.413 60.8858C133.325 60.0179 133.09 59.1927 132.709 58.413L132.715 58.4073ZM128.488 70.5265C128.313 71.3062 127.938 72.0574 127.365 72.7773C126.792 73.4972 126.038 74.0948 125.099 74.5643C124.16 75.0196 123.036 75.2472 121.731 75.2472C120.747 75.2472 119.942 75.0936 119.309 74.7834C118.676 74.4733 118.208 74.0606 117.902 73.5456C117.593 73.0163 117.44 72.4415 117.44 71.8241C117.44 71.2066 117.579 70.6545 117.857 70.2135C118.149 69.7724 118.54 69.3968 119.022 69.0866C119.522 68.7765 120.086 68.5118 120.716 68.2927C121.465 68.0565 122.316 67.8574 123.269 67.698C124.236 67.5216 125.317 67.3452 126.503 67.1687C127.263 67.0549 128.086 66.9326 128.957 66.8017C128.945 67.1915 128.928 67.6354 128.903 68.1419C128.874 69.024 128.732 69.8208 128.486 70.5265H128.488Z" fill="white"/>
<path d="M144.308 45.9099H139.707V78.3634H144.308V45.9099Z" fill="white"/>
<path fill-rule="evenodd" clip-rule="evenodd" d="M157.451 47.8986H152.83V54.523H148.274V58.2308H152.83V68.9813C152.83 70.276 152.844 71.4398 152.873 72.4699C152.918 73.4858 153.196 74.4874 153.71 75.472C154.283 76.576 155.134 77.3842 156.263 77.8992C157.392 78.4143 158.677 78.6931 160.115 78.7386C161.553 78.7842 163.02 78.659 164.517 78.363V74.4561C162.963 74.678 161.604 74.7293 160.447 74.6097C159.304 74.4789 158.467 73.9553 157.939 73.0419C157.661 72.5553 157.505 71.9605 157.477 71.2549C157.463 70.5492 157.454 69.7154 157.454 68.7593V58.2279H164.52V54.5202H157.454V47.8958L157.451 47.8986Z" fill="white"/>
<path fill-rule="evenodd" clip-rule="evenodd" d="M189.931 59.577C189.565 58.5611 189.029 57.6278 188.326 56.7741C187.636 55.9062 186.734 55.2062 185.619 54.677C184.504 54.1477 183.126 53.8831 181.481 53.8831C179.339 53.8831 177.512 54.3469 176 55.2745C175.075 55.8408 174.284 56.5493 173.623 57.3916V46.5757H169.507V78.3661H174.173V65.9596C174.173 64.5482 174.326 63.3473 174.636 62.3599C174.959 61.3725 175.39 60.5786 175.935 59.9754C176.494 59.3721 177.138 58.9367 177.872 58.6721C178.607 58.3932 179.384 58.2538 180.204 58.2538C181.466 58.2538 182.485 58.5099 183.262 59.025C184.053 59.54 184.663 60.2172 185.089 61.0567C185.529 61.8961 185.824 62.8095 185.968 63.7941C186.13 64.7644 186.209 65.7148 186.209 66.6425V78.3661H190.876V65.1201C190.876 64.3831 190.81 63.5295 190.677 62.5591C190.544 61.5888 190.297 60.5957 189.928 59.5798L189.931 59.577Z" fill="white"/>
<path fill-rule="evenodd" clip-rule="evenodd" d="M76.7045 32.2821C78.1286 31.4569 79.1838 30.3244 79.8731 28.8817C80.5766 27.439 80.9284 25.7687 80.9284 23.8707C80.9284 22.1036 80.4291 20.5072 79.4306 19.0788C78.7158 18.0401 77.7314 17.2718 76.4861 16.771C77.1896 16.3442 77.7825 15.7751 78.2647 15.0609C79.0703 13.8828 79.476 12.4031 79.476 10.6246C79.476 9.22749 79.1526 7.8417 78.5087 6.473C77.8619 5.10429 76.8435 3.97176 75.4507 3.07257C74.0579 2.15914 72.2311 1.70386 69.9702 1.70386H57.293V33.4972H71.3347C73.4905 33.4972 75.2805 33.0931 76.7045 32.2821ZM63.3692 7.31243H69.8851C71.0283 7.31243 71.902 7.64252 72.5034 8.30553C73.1048 8.96854 73.4054 9.78521 73.4054 10.7555C73.4054 11.5352 73.2523 12.1755 72.9431 12.6763C72.6339 13.1629 72.2169 13.5214 71.6892 13.7576C71.1616 13.9938 70.5602 14.1104 69.8851 14.1104H63.3692V7.31243ZM63.3692 27.8431V19.719H70.7191C71.6439 19.719 72.4126 19.8954 73.031 20.2483C73.6608 20.5869 74.1316 21.0507 74.4408 21.6398C74.75 22.2288 74.9032 22.8975 74.9032 23.6487C74.9032 24.5024 74.7188 25.2451 74.3529 25.8796C74.0011 26.4971 73.5104 26.9837 72.8778 27.3365C72.2481 27.6752 71.5275 27.8431 70.7219 27.8431H63.372H63.3692Z" fill="white"/>
<path fill-rule="evenodd" clip-rule="evenodd" d="M90.3346 21.3098C90.3346 20.3964 90.4594 19.5797 90.7091 18.8598C90.9587 18.1228 91.3246 17.4911 91.8097 16.9618C92.2948 16.4183 92.8877 15.9829 93.5912 15.6586C94.2947 15.3199 95.0804 15.1207 95.9456 15.0638C96.825 14.9898 97.5966 15.0553 98.2575 15.263V9.65445C97.5399 9.56623 96.8193 9.55201 96.1016 9.60892C95.384 9.65445 94.6861 9.7768 94.011 9.98453C93.3359 10.1752 92.7118 10.4484 92.1416 10.8012C91.3927 11.2423 90.763 11.8028 90.2495 12.4801C90.0056 12.8016 89.7871 13.1402 89.5886 13.4959V9.65445H84.3066V33.4973H90.3375V21.3098H90.3346Z" fill="white"/>
<path d="M107.855 9.65454H101.869V33.4974H107.855V9.65454Z" fill="white"/>
<path fill-rule="evenodd" clip-rule="evenodd" d="M150.981 14.5971C152.257 14.5971 153.239 14.8845 153.931 15.4593C154.634 16.0341 155.142 16.7484 155.449 17.602C155.758 18.4557 155.939 19.3093 155.999 20.163C156.058 21.0024 156.087 21.6939 156.087 22.2374V33.4972H162.16V20.1175C162.16 19.7191 162.132 19.0874 162.072 18.2195C162.013 17.3516 161.845 16.3955 161.567 15.3483C161.289 14.2898 160.818 13.2739 160.157 12.3008C159.511 11.3304 158.603 10.528 157.429 9.89343C156.254 9.26171 154.737 8.94301 152.873 8.94301C150.541 8.94301 148.604 9.44952 147.063 10.4654C146.348 10.9406 145.719 11.4898 145.171 12.1073V1.70679H139.847V33.4972H145.92V21.398C145.92 19.9126 146.082 18.7203 146.405 17.8211C146.743 16.9219 147.168 16.2475 147.682 15.7894C148.195 15.317 148.745 15.0012 149.333 14.839C149.92 14.6768 150.47 14.5971 150.984 14.5971H150.981Z" fill="white"/>
<path fill-rule="evenodd" clip-rule="evenodd" d="M172.052 33.0767C173.3 33.5917 174.707 33.8649 176.278 33.8933C177.864 33.936 179.478 33.8051 181.121 33.4949V28.5067C179.711 28.6974 178.429 28.7571 177.268 28.6831C176.108 28.6091 175.266 28.1539 174.738 27.3144C174.46 26.8734 174.304 26.2843 174.276 25.5473C174.262 24.7961 174.253 23.9567 174.253 23.0319V14.2903H181.121V9.65495H174.253V3.03052H168.268V9.65495H164.217V14.2903H168.268V23.3847C168.268 24.8132 168.282 26.0937 168.31 27.2262C168.339 28.3445 168.648 29.4486 169.235 30.5384C169.882 31.7023 170.821 32.5474 172.052 33.0767Z" fill="white"/>
<path fill-rule="evenodd" clip-rule="evenodd" d="M201.488 20.8914C200.402 20.2597 198.958 19.7077 197.154 19.2353C195.304 18.763 193.925 18.3817 193.015 18.0886C192.118 17.7955 191.526 17.5081 191.233 17.2264C190.955 16.9475 190.816 16.6004 190.816 16.1878C190.816 15.4963 191.145 14.967 191.806 14.5971C192.482 14.23 193.369 14.0821 194.47 14.156C195.599 14.2443 196.495 14.5459 197.156 15.0609C197.817 15.576 198.197 16.276 198.3 17.1581L204.418 16.054C204.214 14.6113 203.664 13.3593 202.767 12.3007C201.888 11.2422 200.728 10.4255 199.29 9.85073C197.851 9.27593 196.2 8.98853 194.337 8.98853C192.473 8.98853 190.743 9.29869 189.319 9.91617C187.909 10.5194 186.817 11.3873 186.039 12.5227C185.262 13.641 184.873 14.967 184.873 16.4979C184.873 17.7187 185.129 18.7658 185.645 19.6337C186.159 20.4874 186.995 21.2244 188.153 21.8419C189.313 22.4593 190.859 23.0199 192.796 23.5207C194.513 23.976 195.775 24.3459 196.581 24.6248C197.403 24.9037 197.931 25.1911 198.166 25.487C198.402 25.7659 198.518 26.1415 198.518 26.6138C198.518 27.3651 198.226 27.9541 197.639 28.3809C197.051 28.7935 196.215 28.9984 195.131 28.9984C193.812 28.9984 192.717 28.6826 191.852 28.048C191.001 27.4163 190.45 26.5399 190.201 25.4216L184.082 26.3492C184.479 28.8362 185.594 30.7655 187.427 32.1342C189.276 33.4887 191.696 34.1659 194.688 34.1659C197.681 34.1659 200.234 33.4659 201.996 32.0688C203.757 30.6716 204.637 28.7509 204.637 26.3065C204.637 25.0716 204.387 24.0187 203.888 23.1508C203.389 22.2687 202.589 21.5175 201.488 20.9V20.8914Z" fill="white"/>
<path d="M214.88 9.65454H208.895V33.4974H214.88V9.65454Z" fill="white"/>
<path fill-rule="evenodd" clip-rule="evenodd" d="M235.781 10.4312C234.3 9.47513 232.513 8.99139 230.411 8.99139C228.136 8.99139 226.156 9.53489 224.468 10.6247C222.78 11.7146 221.467 13.2085 220.528 15.1065C219.603 16.9902 219.141 19.1471 219.141 21.5744C219.141 24.0017 219.594 26.0988 220.505 27.9996C221.43 29.8976 222.712 31.4001 224.357 32.5041C226 33.6082 227.915 34.1603 230.102 34.1603C232.465 34.1603 234.436 33.6082 236.022 32.5041C236.195 32.3818 236.362 32.2537 236.53 32.1228V33.4972H241.812V1.70679H235.781V10.4312ZM236.002 25.3732C235.65 26.463 235.069 27.3082 234.263 27.9114C233.472 28.5147 232.408 28.8163 231.072 28.8163C229.736 28.8163 228.723 28.4919 227.903 27.846C227.081 27.1972 226.473 26.3293 226.076 25.2395C225.679 24.1354 225.483 22.9147 225.483 21.5744C225.483 20.2341 225.688 19.0419 226.099 17.9549C226.51 16.8508 227.14 15.9744 227.991 15.3284C228.856 14.6654 229.957 14.3353 231.293 14.3353C232.541 14.3353 233.545 14.637 234.308 15.2402C235.086 15.8435 235.65 16.6886 236.002 17.7784C236.354 18.8683 236.53 20.1346 236.53 21.5744C236.53 23.0142 236.354 24.2834 236.002 25.3704V25.3732Z" fill="white"/>
<path fill-rule="evenodd" clip-rule="evenodd" d="M265.884 23.2533H268.766C269.016 20.3679 268.724 17.8581 267.887 15.7239C267.05 13.5898 265.759 11.9337 264.012 10.7556C262.267 9.57755 260.145 8.98853 257.652 8.98853C255.303 8.98853 253.227 9.52633 251.423 10.5991C249.618 11.6576 248.203 13.1516 247.176 15.0808C246.149 17.0101 245.636 19.2752 245.636 21.8817C245.636 24.2663 246.158 26.3862 247.199 28.2387C248.254 30.0797 249.709 31.5281 251.556 32.5867C253.42 33.631 255.57 34.1545 258.004 34.1545C260.293 34.1545 262.398 33.5513 264.321 32.3448C266.259 31.1383 267.674 29.4452 268.568 27.2683L262.582 25.5468C262.143 26.5171 261.504 27.2626 260.667 27.7777C259.831 28.2927 258.826 28.5517 257.652 28.5517C255.788 28.5517 254.373 27.9484 253.405 26.7419C252.708 25.8484 252.268 24.6846 252.081 23.2533H265.884ZM257.916 14.2016C259.663 14.2016 260.917 14.7394 261.68 15.8121C262.191 16.5093 262.531 17.5052 262.707 18.7914H252.242C252.475 17.6931 252.861 16.7825 253.405 16.0768C254.373 14.8247 255.879 14.2016 257.916 14.2016Z" fill="white"/>
<path d="M104.859 7.18172C106.729 7.18172 108.246 5.65929 108.246 3.78129C108.246 1.90328 106.729 0.380859 104.859 0.380859C102.988 0.380859 101.472 1.90328 101.472 3.78129C101.472 5.65929 102.988 7.18172 104.859 7.18172Z" fill="white"/>
<path d="M211.888 7.18172C213.759 7.18172 215.275 5.65929 215.275 3.78129C215.275 1.90328 213.759 0.380859 211.888 0.380859C210.017 0.380859 208.501 1.90328 208.501 3.78129C208.501 5.65929 210.017 7.18172 211.888 7.18172Z" fill="white"/>
<path fill-rule="evenodd" clip-rule="evenodd" d="M129.711 7.42381C129.711 8.92057 129.435 9.68033 129.14 9.99334L129.135 9.98765C128.794 10.349 128.44 10.5311 128.057 10.5824C126.681 10.0816 125.197 9.83399 123.629 9.83399C122.154 9.83399 120.775 10.0389 119.507 10.4657C118.239 10.8925 117.121 11.5129 116.177 12.3466C115.226 13.1519 114.48 14.1535 113.93 15.3259L113.922 15.3458C113.394 16.5438 113.144 17.8727 113.144 19.3125C113.144 21.5548 113.749 23.4869 115.002 25.0577C114.427 25.6012 113.97 26.2187 113.649 26.9101C113.221 27.8321 113.005 28.7996 113.005 29.8211C113.005 31.3321 113.4 32.6524 114.219 33.7195C113.49 34.226 112.866 34.8236 112.361 35.5264C111.632 36.5338 111.261 37.6464 111.261 38.8443C111.261 41.4025 112.353 43.4114 114.537 44.7261C116.653 45.9981 119.717 46.5729 123.589 46.5729C127.461 46.5729 130.516 45.9184 132.655 44.4871C134.825 43.033 135.917 40.97 135.917 38.3947C135.917 37.1256 135.676 35.996 135.154 35.0342C134.647 34.1065 133.96 33.3439 133.078 32.752C132.221 32.1772 131.248 31.7732 130.17 31.5398C129.123 31.2837 128.026 31.1557 126.888 31.1557H120.662C119.649 31.1557 119.087 30.9394 118.792 30.6776C118.443 30.3419 118.265 29.9378 118.265 29.4142C118.265 29.05 118.333 28.6971 118.477 28.3557C118.56 28.1792 118.653 28.0142 118.764 27.8691C120.211 28.4638 121.839 28.754 123.634 28.754C125.081 28.754 126.437 28.5492 127.708 28.1223C129.001 27.7012 130.133 27.0922 131.084 26.2926C132.062 25.4589 132.814 24.4573 133.342 23.2991C133.903 22.0955 134.173 20.7666 134.173 19.3182C134.173 18.032 133.957 16.8483 133.498 15.7755C133.228 15.0783 132.888 14.4324 132.471 13.8519C133.14 13.4734 134.045 12.9783 134.496 12.358C135.245 11.3421 135.917 9.95635 135.917 8.32016V5.81323H129.713V7.42381H129.711ZM118.378 36.124C119.215 36.2976 120.106 36.3801 121.033 36.3801H126.695C127.118 36.3801 127.541 36.4086 127.963 36.4598C128.372 36.5338 128.701 36.6504 128.97 36.8012L128.984 36.8098L128.999 36.8183C129.279 36.9634 129.495 37.1512 129.662 37.3903L129.674 37.4045C129.821 37.6094 129.94 37.9281 129.94 38.4374C129.94 39.0236 129.818 39.4704 129.611 39.8175C129.41 40.159 129.095 40.4492 128.633 40.6769L128.619 40.6854C127.626 41.209 125.986 41.5192 123.581 41.5192C121.175 41.5192 119.578 41.2062 118.562 40.6826C118.072 40.4236 117.745 40.1305 117.538 39.8118C117.331 39.4931 117.218 39.1061 117.218 38.6139C117.218 38.0817 117.351 37.5838 117.612 37.1228C117.853 36.7586 118.109 36.4256 118.375 36.1212L118.378 36.124ZM127.611 21.4979C127.342 22.0926 126.996 22.5564 126.599 22.9121C126.185 23.282 125.728 23.5495 125.223 23.7174C124.687 23.8938 124.156 23.9849 123.634 23.9849C123.112 23.9849 122.588 23.8995 122.046 23.7174C121.544 23.5495 121.093 23.2877 120.679 22.9264C120.304 22.5707 119.975 22.104 119.706 21.5036C119.45 20.9146 119.306 20.1946 119.306 19.3267C119.306 18.4588 119.447 17.7076 119.706 17.1556V17.1414C119.986 16.5096 120.315 16.0316 120.684 15.6759C121.098 15.3117 121.549 15.0499 122.052 14.8848C122.588 14.7084 123.118 14.6174 123.64 14.6174C124.162 14.6174 124.687 14.7027 125.229 14.8848C125.736 15.0527 126.193 15.3202 126.604 15.6901L126.599 15.6816C126.993 16.0316 127.336 16.5096 127.606 17.1357V17.1499C127.861 17.7019 128.009 18.4133 128.009 19.321C128.009 20.2288 127.867 20.906 127.609 21.4979H127.611Z" fill="white"/>
<path fill-rule="evenodd" clip-rule="evenodd" d="M39.7786 57.6333C42.8054 57.6333 45.2591 60.0947 45.2591 63.1309V74.1232C45.2591 77.1594 42.8054 79.6208 39.7786 79.6208C36.7519 79.6208 34.2981 77.1594 34.2981 74.1232V63.1309C34.2981 60.0947 36.7519 57.6333 39.7786 57.6333ZM22.991 49.0682C25.1299 46.9226 28.5992 46.9226 30.7409 49.0682C32.8798 51.2137 32.8798 54.6938 30.7409 56.8422L19.4395 68.1789C17.3006 70.3244 13.8313 70.3244 11.6896 68.1789C9.55071 66.0333 9.55071 62.5532 11.6896 60.4048L22.991 49.0682ZM30.7409 23.1595C32.8798 25.305 32.8798 28.7851 30.7409 30.9335C28.602 33.079 25.1327 33.079 22.991 30.9335L11.6896 19.5968C9.55071 17.4513 9.55071 13.9712 11.6896 11.8228C13.8285 9.67726 17.2977 9.67726 19.4395 11.8228L30.7409 23.1595ZM39.7815 22.3656C42.8082 22.3656 45.262 19.9042 45.262 16.868V5.87846C45.262 2.84226 42.8082 0.380859 39.7815 0.380859C36.7547 0.380859 34.3009 2.84226 34.3009 5.87846V16.8708C34.3009 19.907 36.7547 22.3684 39.7815 22.3684V22.3656ZM16.7219 34.5047C19.7487 34.5047 22.2024 36.9661 22.2024 39.9994C22.2024 43.0328 19.7487 45.497 16.7219 45.497H5.76371C2.73695 45.497 0.283203 43.0356 0.283203 39.9994C0.283203 36.9632 2.73695 34.5047 5.76371 34.5047H16.7219Z" fill="url(#paint0_linear_624_2237)"/>
<defs>
<linearGradient id="paint0_linear_624_2237" x1="22.7641" y1="0.38655" x2="22.7898" y2="79.6265" gradientUnits="userSpaceOnUse">
<stop stop-color="#3FBFF5"/>
<stop offset="0.52" stop-color="#47AAF2"/>
<stop offset="1" stop-color="#367DDD"/>
</linearGradient>
</defs>
</svg>
