<?xml version="1.0" encoding="UTF-8"?> <svg xmlns="http://www.w3.org/2000/svg" width="38" height="27" viewBox="0 0 38 27" fill="none"><path fill-rule="evenodd" clip-rule="evenodd" d="M19.1396 24.8904C19.0386 24.8477 18.9383 24.8038 18.8387 24.7586C18.7391 24.8038 18.6388 24.8477 18.5378 24.8904C16.9648 25.5559 15.2939 25.8931 13.5713 25.8931C11.8488 25.8931 10.1779 25.5559 8.60492 24.8904C7.08552 24.2479 5.72127 23.328 4.54968 22.156C3.37764 20.9844 2.45776 19.6197 1.81522 18.1003C1.14979 16.5273 0.8125 14.8564 0.8125 13.1338C0.8125 11.4113 1.14979 9.74036 1.81522 8.16742C2.45776 6.64802 3.37764 5.28377 4.54968 4.11218C5.72127 2.94014 7.08552 2.02026 8.60492 1.37772C10.1779 0.712292 11.8488 0.375 13.5713 0.375C15.2939 0.375 16.9648 0.712292 18.5378 1.37772C18.6388 1.42042 18.7391 1.46441 18.8387 1.50955C18.9383 1.46441 19.0386 1.42042 19.1396 1.37772C20.7125 0.712292 22.3834 0.375 24.106 0.375C25.8281 0.375 27.499 0.712292 29.072 1.37772C30.5914 2.02026 31.9561 2.94014 33.1277 4.11218C34.2993 5.28377 35.2191 6.64802 35.8621 8.16742C36.5271 9.74036 36.8648 11.4113 36.8648 13.1338C36.8648 14.8564 36.5271 16.5273 35.8621 18.1003C35.2196 19.6197 34.2993 20.9844 33.1277 22.156C31.9561 23.328 30.5914 24.2479 29.072 24.8904C27.499 25.5559 25.8281 25.8931 24.106 25.8931C22.3834 25.8931 20.7125 25.5559 19.1396 24.8904ZM24.1064 24.8763C25.6913 24.8763 27.229 24.566 28.6765 23.9537C30.0751 23.3619 31.3309 22.5153 32.4091 21.4371C33.4874 20.3588 34.334 19.103 34.9253 17.7045C35.5376 16.2569 35.8484 14.7192 35.8484 13.1339C35.8484 11.5486 35.5376 10.0109 34.9253 8.56335C34.334 7.16523 33.4874 5.90943 32.4091 4.83121C31.3309 3.75253 30.0751 2.90633 28.6765 2.31459C27.229 1.70226 25.6913 1.39197 24.1064 1.39197C22.6972 1.39197 21.3256 1.63719 20.0215 2.12177C20.9563 2.66965 21.8175 3.33558 22.5939 4.11224C23.7659 5.28383 24.6858 6.64808 25.3284 8.16748C25.9938 9.74043 26.3311 11.4113 26.3311 13.1339C26.3311 14.8565 25.9938 16.5274 25.3284 18.1003C24.6858 19.6197 23.7659 20.9844 22.5939 22.156C21.8175 22.9327 20.9563 23.5986 20.0215 24.1465C21.3256 24.6311 22.6972 24.8763 24.1064 24.8763H24.1064ZM9.00146 2.31459C7.60334 2.90634 6.34754 3.75253 5.26932 4.83121C4.19064 5.90943 3.34444 7.16523 2.7527 8.56335C2.14037 10.0109 1.83008 11.5486 1.83008 13.1339C1.83008 14.7192 2.14037 16.2569 2.7527 17.7045C3.34399 19.103 4.19064 20.3588 5.26932 21.4371C6.34754 22.5153 7.60334 23.3619 9.00146 23.9537C10.449 24.566 11.9867 24.8763 13.572 24.8763C14.9812 24.8763 16.3529 24.6311 17.657 24.1465C16.7222 23.5986 15.8609 22.9327 15.0846 22.156C13.9125 20.9844 12.9926 19.6197 12.3501 18.1003C11.6847 16.5274 11.3474 14.8565 11.3474 13.1339C11.3474 11.4113 11.6847 9.74043 12.3501 8.16748C12.9926 6.64808 13.9125 5.28383 15.0846 4.11224C15.8609 3.33558 16.7222 2.66965 17.657 2.12177C16.3529 1.63719 14.9812 1.39197 13.572 1.39197C11.9867 1.39197 10.449 1.70226 9.00146 2.31459ZM15.8025 4.83175C14.7238 5.90998 13.8772 7.16577 13.2859 8.5639C12.6736 10.0115 12.3633 11.5492 12.3633 13.1345C12.3633 14.7198 12.6736 16.2575 13.2859 17.705C13.8772 19.1031 14.7238 20.3589 15.8025 21.4376C16.6985 22.3336 17.7171 23.0696 18.8383 23.6324C19.9596 23.0696 20.9782 22.3336 21.8742 21.4376C22.9524 20.3594 23.7991 19.1036 24.3908 17.705C25.0031 16.2575 25.3134 14.7198 25.3134 13.1345C25.3134 11.5492 25.0031 10.0114 24.3908 8.5639C23.7991 7.16577 22.9524 5.90998 21.8742 4.83175C20.9782 3.93544 19.9597 3.19936 18.8385 2.63684C17.7172 3.19953 16.6985 3.93538 15.8025 4.83175Z" fill="#576690"></path><path d="M19.1396 24.8904L19.2717 24.5782L19.2716 24.5782L19.1396 24.8904ZM18.8387 24.7586L18.9786 24.4498L18.8387 24.3864L18.6987 24.4498L18.8387 24.7586ZM18.5378 24.8904L18.4057 24.5782L18.4057 24.5782L18.5378 24.8904ZM8.60492 24.8904L8.737 24.5782L8.73696 24.5782L8.60492 24.8904ZM4.54968 22.156L4.78944 21.9163L4.78935 21.9162L4.54968 22.156ZM1.81522 18.1003L2.12745 17.9682L2.12743 17.9682L1.81522 18.1003ZM1.81522 8.16742L2.12743 8.2995L2.12745 8.29946L1.81522 8.16742ZM4.54968 4.11218L4.78935 4.35194L4.78944 4.35185L4.54968 4.11218ZM8.60492 1.37772L8.73696 1.68995L8.737 1.68993L8.60492 1.37772ZM18.5378 1.37772L18.4057 1.68993L18.4057 1.68994L18.5378 1.37772ZM18.8387 1.50955L18.6987 1.81832L18.8387 1.88175L18.9786 1.81832L18.8387 1.50955ZM19.1396 1.37772L19.2716 1.68994L19.2717 1.68993L19.1396 1.37772ZM29.072 1.37772L28.9399 1.68993L28.9399 1.68995L29.072 1.37772ZM33.1277 4.11218L32.8879 4.35185L32.888 4.35189L33.1277 4.11218ZM35.8621 8.16742L36.1744 8.03542L36.1743 8.0353L35.8621 8.16742ZM35.8621 18.1003L36.1744 18.2323L36.1744 18.2323L35.8621 18.1003ZM33.1277 22.156L32.888 21.9163L32.8879 21.9163L33.1277 22.156ZM29.072 24.8904L28.9399 24.5782L28.9399 24.5782L29.072 24.8904ZM28.6765 23.9537L28.8086 24.2659L28.8086 24.2659L28.6765 23.9537ZM32.4091 21.4371L32.1694 21.1974L32.1694 21.1974L32.4091 21.4371ZM34.9253 17.7045L34.6131 17.5724L34.6131 17.5725L34.9253 17.7045ZM34.9253 8.56335L34.6131 8.6954L34.6131 8.69543L34.9253 8.56335ZM32.4091 4.83121L32.1694 5.07087L32.1694 5.07092L32.4091 4.83121ZM28.6765 2.31459L28.8086 2.00239L28.8086 2.00238L28.6765 2.31459ZM20.0215 2.12177L19.9034 1.804L19.2336 2.0529L19.8501 2.41424L20.0215 2.12177ZM22.5939 4.11224L22.3541 4.35191L22.3542 4.352L22.5939 4.11224ZM25.3284 8.16748L25.0161 8.29952L25.0162 8.29956L25.3284 8.16748ZM25.3284 18.1003L25.0162 17.9683L25.0161 17.9683L25.3284 18.1003ZM22.5939 22.156L22.3542 21.9163L22.3541 21.9164L22.5939 22.156ZM20.0215 24.1465L19.8501 23.854L19.2336 24.2154L19.9034 24.4643L20.0215 24.1465ZM9.00146 2.31459L8.86939 2.00238L8.86933 2.0024L9.00146 2.31459ZM5.26932 4.83121L5.50898 5.07097L5.50908 5.07087L5.26932 4.83121ZM2.7527 8.56335L2.44051 8.43122L2.44049 8.43128L2.7527 8.56335ZM2.7527 17.7045L3.06494 17.5725L3.06492 17.5724L2.7527 17.7045ZM5.26932 21.4371L5.50903 21.1974L5.50898 21.1973L5.26932 21.4371ZM9.00146 23.9537L8.86933 24.2659L8.86939 24.2659L9.00146 23.9537ZM17.657 24.1465L17.775 24.4643L18.4449 24.2154L17.8284 23.854L17.657 24.1465ZM15.0846 22.156L15.3243 21.9164L15.3242 21.9163L15.0846 22.156ZM12.3501 18.1003L12.6623 17.9683L12.6623 17.9683L12.3501 18.1003ZM12.3501 8.16748L12.6623 8.29956L12.6623 8.29952L12.3501 8.16748ZM15.0846 4.11224L15.3242 4.352L15.3243 4.35191L15.0846 4.11224ZM17.657 2.12177L17.8284 2.41424L18.4449 2.0529L17.775 1.804L17.657 2.12177ZM15.8025 4.83175L16.0422 5.07151L16.0423 5.07141L15.8025 4.83175ZM13.2859 8.5639L13.5981 8.69597L13.5981 8.69594L13.2859 8.5639ZM13.2859 17.705L13.5981 17.573L13.5981 17.5729L13.2859 17.705ZM18.8383 23.6324L18.6863 23.9354L18.8383 24.0117L18.9904 23.9354L18.8383 23.6324ZM24.3908 17.705L24.703 17.8371L24.703 17.8371L24.3908 17.705ZM24.3908 8.5639L24.703 8.43183L24.703 8.43177L24.3908 8.5639ZM21.8742 4.83175L21.6344 5.07141L21.6345 5.07146L21.8742 4.83175ZM18.8385 2.63684L18.9905 2.33384L18.8385 2.25756L18.6865 2.33385L18.8385 2.63684ZM19.2716 24.5782C19.1734 24.5367 19.0757 24.4938 18.9786 24.4498L18.6987 25.0674C18.8009 25.1137 18.9038 25.1588 19.0075 25.2027L19.2716 24.5782ZM18.6987 24.4498C18.6017 24.4938 18.504 24.5367 18.4057 24.5782L18.6698 25.2027C18.7735 25.1588 18.8765 25.1137 18.9786 25.0674L18.6987 24.4498ZM18.4057 24.5782C16.8749 25.2258 15.249 25.5541 13.5713 25.5541V26.2321C15.3389 26.2321 17.0547 25.8859 18.6699 25.2027L18.4057 24.5782ZM13.5713 25.5541C11.8937 25.5541 10.2678 25.2258 8.737 24.5782L8.47284 25.2027C10.088 25.8859 11.8038 26.2321 13.5713 26.2321V25.5541ZM8.73696 24.5782C7.25799 23.9528 5.93027 23.0576 4.78944 21.9163L4.30993 22.3956C5.51227 23.5984 6.91305 24.543 8.47288 25.2027L8.73696 24.5782ZM4.78935 21.9162C3.6481 20.7754 2.7529 19.4472 2.12745 17.9682L1.50299 18.2323C2.16261 19.7921 3.10719 21.1934 4.31002 22.3957L4.78935 21.9162ZM2.12743 17.9682C1.47984 16.4374 1.1515 14.8115 1.1515 13.1338H0.473499C0.473499 14.9014 0.819741 16.6172 1.503 18.2324L2.12743 17.9682ZM1.1515 13.1338C1.1515 11.4562 1.47984 9.83027 2.12743 8.2995L1.503 8.03534C0.819741 9.65045 0.473499 11.3663 0.473499 13.1338H1.1515ZM2.12745 8.29946C2.75289 6.82049 3.64806 5.49277 4.78935 4.35194L4.31002 3.87243C3.10721 5.07477 2.16263 6.47555 1.50299 8.03538L2.12745 8.29946ZM4.78944 4.35185C5.93027 3.21057 7.25799 2.31539 8.73696 1.68995L8.47288 1.06549C6.91305 1.72513 5.51227 2.66971 4.30993 3.87252L4.78944 4.35185ZM8.737 1.68993C10.2678 1.04234 11.8937 0.714001 13.5713 0.714001V0.0359994C11.8038 0.0359994 10.088 0.382241 8.47284 1.0655L8.737 1.68993ZM13.5713 0.714001C15.249 0.714001 16.8749 1.04234 18.4057 1.68993L18.6699 1.0655C17.0547 0.382241 15.3389 0.0359994 13.5713 0.0359994V0.714001ZM18.4057 1.68994C18.504 1.7315 18.6017 1.77432 18.6987 1.81832L18.9786 1.20079C18.8765 1.15449 18.7735 1.10935 18.6698 1.06549L18.4057 1.68994ZM18.9786 1.81832C19.0757 1.77432 19.1734 1.7315 19.2716 1.68994L19.0075 1.06549C18.9038 1.10935 18.8009 1.15449 18.6987 1.20079L18.9786 1.81832ZM19.2717 1.68993C20.8024 1.04234 22.4284 0.714001 24.106 0.714001V0.0359994C22.3384 0.0359994 20.6226 0.382241 19.0075 1.0655L19.2717 1.68993ZM24.106 0.714001C25.7832 0.714001 27.4091 1.04234 28.9399 1.68993L29.2041 1.0655C27.5889 0.382243 25.8731 0.0359994 24.106 0.0359994V0.714001ZM28.9399 1.68995C30.4189 2.3154 31.7471 3.21059 32.8879 4.35185L33.3674 3.87252C32.1651 2.66968 30.7638 1.72511 29.204 1.06549L28.9399 1.68995ZM32.888 4.35189C34.0288 5.49274 34.924 6.8205 35.5499 8.29954L36.1743 8.0353C35.5143 6.47554 34.5697 5.07479 33.3674 3.87247L32.888 4.35189ZM35.5499 8.29942C36.1971 9.8303 36.5258 11.4563 36.5258 13.1338H37.2038C37.2038 11.3662 36.8571 9.65043 36.1744 8.03542L35.5499 8.29942ZM36.5258 13.1338C36.5258 14.8114 36.1971 16.4374 35.5499 17.9683L36.1744 18.2323C36.8571 16.6173 37.2038 14.9015 37.2038 13.1338H36.5258ZM35.5499 17.9682C34.9245 19.4472 34.0288 20.7754 32.888 21.9163L33.3674 22.3957C34.5697 21.1934 35.5147 19.7922 36.1744 18.2323L35.5499 17.9682ZM32.8879 21.9163C31.7471 23.0576 30.4189 23.9528 28.9399 24.5782L29.204 25.2027C30.7638 24.543 32.1651 23.5985 33.3674 22.3956L32.8879 21.9163ZM28.9399 24.5782C27.4091 25.2258 25.7832 25.5541 24.106 25.5541V26.2321C25.8731 26.2321 27.5889 25.8859 29.2041 25.2027L28.9399 24.5782ZM24.106 25.5541C22.4284 25.5541 20.8024 25.2258 19.2717 24.5782L19.0075 25.2027C20.6226 25.8859 22.3384 26.2321 24.106 26.2321V25.5541ZM24.1064 25.2153C25.7362 25.2153 27.3189 24.8961 28.8086 24.2659L28.5445 23.6415C27.1391 24.236 25.6463 24.5373 24.1064 24.5373V25.2153ZM28.8086 24.2659C30.2476 23.6571 31.5399 22.7857 32.6489 21.6768L32.1694 21.1974C31.122 22.2448 29.9027 23.0668 28.5444 23.6415L28.8086 24.2659ZM32.6488 21.6768C33.7578 20.5678 34.6292 19.2755 35.2375 17.8365L34.6131 17.5725C34.0389 18.9306 33.2169 20.1499 32.1694 21.1974L32.6488 21.6768ZM35.2375 17.8365C35.8677 16.3469 36.1874 14.7642 36.1874 13.1339H35.5094C35.5094 14.6742 35.2076 16.167 34.6131 17.5724L35.2375 17.8365ZM36.1874 13.1339C36.1874 11.5036 35.8677 9.92095 35.2375 8.43128L34.6131 8.69543C35.2076 10.1009 35.5094 11.5936 35.5094 13.1339H36.1874ZM35.2375 8.43131C34.6292 6.99277 33.7578 5.70046 32.6488 4.5915L32.1694 5.07092C33.2169 6.11841 34.0389 7.33768 34.6131 8.6954L35.2375 8.43131ZM32.6489 4.59155C31.5399 3.48205 30.2475 2.61118 28.8086 2.00239L28.5444 2.6268C29.9027 3.20148 31.122 4.02301 32.1694 5.07087L32.6489 4.59155ZM28.8086 2.00238C27.3189 1.3722 25.7362 1.05297 24.1064 1.05297V1.73097C25.6463 1.73097 27.1391 2.03231 28.5445 2.62681L28.8086 2.00238ZM24.1064 1.05297C22.6574 1.05297 21.2457 1.30521 19.9034 1.804L20.1396 2.43954C21.4054 1.96918 22.7371 1.73097 24.1064 1.73097V1.05297ZM19.8501 2.41424C20.7597 2.94736 21.598 3.5955 22.3541 4.35191L22.8337 3.87258C22.0371 3.07566 21.1529 2.39193 20.1929 1.8293L19.8501 2.41424ZM22.3542 4.352C23.4955 5.49283 24.3907 6.82055 25.0161 8.29952L25.6406 8.03544C24.981 6.47562 24.0364 5.07483 22.8336 3.87249L22.3542 4.352ZM25.0162 8.29956C25.6637 9.83033 25.9921 11.4563 25.9921 13.1339H26.6701C26.6701 11.3664 26.3238 9.65052 25.6406 8.0354L25.0162 8.29956ZM25.9921 13.1339C25.9921 14.8115 25.6637 16.4375 25.0162 17.9683L25.6406 18.2324C26.3238 16.6173 26.6701 14.9015 26.6701 13.1339H25.9921ZM25.0161 17.9683C24.3907 19.4473 23.4955 20.7755 22.3542 21.9163L22.8336 22.3958C24.0364 21.1934 24.981 19.7922 25.6406 18.2324L25.0161 17.9683ZM22.3541 21.9164C21.598 22.6728 20.7597 23.3209 19.8501 23.854L20.1929 24.439C21.1529 23.8763 22.0371 23.1926 22.8337 22.3957L22.3541 21.9164ZM19.9034 24.4643C21.2457 24.9631 22.6574 25.2153 24.1064 25.2153V24.5373C22.7371 24.5373 21.4054 24.2991 20.1396 23.8287L19.9034 24.4643ZM24.1064 25.2153H24.1064V24.5373H24.1064V25.2153ZM8.86933 2.0024C7.43091 2.6112 6.13859 3.48205 5.02956 4.59155L5.50908 5.07087C6.5565 4.02301 7.77577 3.20147 9.1336 2.62678L8.86933 2.0024ZM5.02966 4.59145C3.92016 5.70048 3.04931 6.9928 2.44051 8.43122L3.06489 8.69548C3.63958 7.33766 4.46112 6.11839 5.50898 5.07097L5.02966 4.59145ZM2.44049 8.43128C1.81031 9.92102 1.49108 11.5037 1.49108 13.1339H2.16908C2.16908 11.5936 2.47042 10.1008 3.06492 8.69543L2.44049 8.43128ZM1.49108 13.1339C1.49108 14.7642 1.81031 16.3468 2.44049 17.8365L3.06492 17.5724C2.47042 16.167 2.16908 14.6743 2.16908 13.1339H1.49108ZM2.44046 17.8365C3.04884 19.2755 3.9202 20.5678 5.02966 21.6768L5.50898 21.1973C4.46108 20.1498 3.63913 18.9306 3.06494 17.5725L2.44046 17.8365ZM5.02961 21.6768C6.13858 22.7857 7.43086 23.6571 8.86933 24.2659L9.1336 23.6415C7.77582 23.0668 6.55651 22.2448 5.50903 21.1974L5.02961 21.6768ZM8.86939 24.2659C10.3591 24.8961 11.9418 25.2153 13.572 25.2153V24.5373C12.0317 24.5373 10.5389 24.236 9.13354 23.6415L8.86939 24.2659ZM13.572 25.2153C15.021 25.2153 16.4327 24.9631 17.775 24.4643L17.5389 23.8287C16.273 24.2991 14.9414 24.5373 13.572 24.5373V25.2153ZM17.8284 23.854C16.9188 23.3209 16.0804 22.6728 15.3243 21.9164L14.8448 22.3957C15.6414 23.1926 16.5256 23.8763 17.4856 24.439L17.8284 23.854ZM15.3242 21.9163C14.183 20.7755 13.2878 19.4473 12.6623 17.9683L12.0379 18.2324C12.6975 19.7922 13.6421 21.1934 14.8449 22.3958L15.3242 21.9163ZM12.6623 17.9683C12.0147 16.4375 11.6864 14.8115 11.6864 13.1339H11.0084C11.0084 14.9015 11.3546 16.6173 12.0379 18.2324L12.6623 17.9683ZM11.6864 13.1339C11.6864 11.4563 12.0147 9.83034 12.6623 8.29956L12.0379 8.0354C11.3546 9.65051 11.0084 11.3663 11.0084 13.1339H11.6864ZM12.6623 8.29952C13.2878 6.82055 14.1829 5.49283 15.3242 4.352L14.8449 3.87249C13.6421 5.07483 12.6975 6.47562 12.0379 8.03544L12.6623 8.29952ZM15.3243 4.35191C16.0804 3.5955 16.9188 2.94736 17.8284 2.41424L17.4856 1.8293C16.5256 2.39193 15.6414 3.07566 14.8448 3.87258L15.3243 4.35191ZM17.775 1.804C16.4327 1.30521 15.021 1.05297 13.572 1.05297V1.73097C14.9414 1.73097 16.273 1.96918 17.5389 2.43954L17.775 1.804ZM13.572 1.05297C11.9418 1.05297 10.3591 1.3722 8.86939 2.00238L9.13354 2.62681C10.5389 2.03231 12.0317 1.73097 13.572 1.73097V1.05297ZM15.5629 4.59199C14.4534 5.70098 13.5821 6.99331 12.9737 8.43185L13.5981 8.69594C14.1723 7.33823 14.9943 6.11898 16.0422 5.07151L15.5629 4.59199ZM12.9737 8.43183C12.3435 9.92156 12.0243 11.5042 12.0243 13.1345H12.7023C12.7023 11.5941 13.0036 10.1013 13.5981 8.69597L12.9737 8.43183ZM12.0243 13.1345C12.0243 14.7647 12.3435 16.3474 12.9737 17.8371L13.5981 17.5729C13.0036 16.1676 12.7023 14.6748 12.7023 13.1345H12.0243ZM12.9737 17.8371C13.5821 19.2756 14.4534 20.5679 15.5628 21.6773L16.0422 21.1979C14.9943 20.1499 14.1723 18.9307 13.5981 17.573L12.9737 17.8371ZM15.5628 21.6773C16.4843 22.5988 17.5323 23.3562 18.6863 23.9354L18.9904 23.3294C17.9018 22.783 16.9128 22.0685 16.0422 21.1979L15.5628 21.6773ZM18.9904 23.9354C20.1444 23.3562 21.1925 22.5988 22.1139 21.6773L21.6345 21.1979C20.7639 22.0685 19.7749 22.783 18.6863 23.3294L18.9904 23.9354ZM22.1139 21.6773C23.2229 20.5683 24.0942 19.2761 24.703 17.8371L24.0786 17.5729C23.5039 18.9311 22.682 20.1504 21.6345 21.1979L22.1139 21.6773ZM24.703 17.8371C25.3332 16.3474 25.6524 14.7647 25.6524 13.1345H24.9744C24.9744 14.6748 24.6731 16.1676 24.0786 17.5729L24.703 17.8371ZM25.6524 13.1345C25.6524 11.5042 25.3332 9.92155 24.703 8.43183L24.0786 8.69597C24.6731 10.1013 24.9744 11.5941 24.9744 13.1345H25.6524ZM24.703 8.43177C24.0942 6.9933 23.2229 5.70101 22.1139 4.59204L21.6345 5.07146C22.682 6.11895 23.5039 7.33825 24.0786 8.69603L24.703 8.43177ZM22.1139 4.59209C21.1926 3.67032 20.1444 2.91277 18.9905 2.33384L18.6865 2.93984C19.775 3.48595 20.7639 4.20057 21.6344 5.07141L22.1139 4.59209ZM18.6865 2.33385C17.5325 2.91292 16.4843 3.67021 15.5628 4.59209L16.0423 5.07141C16.9128 4.20054 17.9019 3.48613 18.9906 2.93983L18.6865 2.33385Z" fill="#576690"></path><path fill-rule="evenodd" clip-rule="evenodd" d="M8.57655 24.8012C7.06264 24.161 5.70342 23.2443 4.53595 22.0768C3.36848 20.9093 2.45181 19.5497 1.81155 18.0357C1.14842 16.4688 0.8125 14.8038 0.8125 13.0876C0.8125 11.3714 1.14842 9.7065 1.81155 8.13905C2.4518 6.62514 3.36848 5.26592 4.53595 4.09845C5.70342 2.93098 7.06265 2.01431 8.57655 1.37405C10.144 0.710916 11.8089 0.375 13.5251 0.375C15.2413 0.375 16.9063 0.710916 18.4732 1.37405C19.9872 2.0143 21.3468 2.93098 22.5143 4.09845C23.6818 5.26592 24.5984 6.62515 25.2387 8.13905C25.9018 9.7065 26.2378 11.3714 26.2378 13.0876C26.2378 14.8038 25.9018 16.4688 25.2387 18.0357C24.5985 19.5497 23.6818 20.9093 22.5143 22.0768C21.3468 23.2443 19.9872 24.1609 18.4732 24.8012C16.9063 25.4643 15.2413 25.8003 13.5251 25.8003C11.8089 25.8003 10.144 25.4643 8.57655 24.8012ZM2.64767 17.6812C3.24216 19.0871 4.09339 20.3493 5.17756 21.4335C6.26173 22.5172 7.52393 23.3685 8.92984 23.9629C10.3852 24.5785 11.9311 24.8906 13.5247 24.8906C15.1182 24.8906 16.6641 24.5785 18.1195 23.9629C19.5254 23.3685 20.7876 22.5172 21.8717 21.4335C22.9555 20.3493 23.8067 19.0871 24.4012 17.6812C24.9581 16.3645 25.2666 14.9737 25.3203 13.5404H1.72852C1.78222 14.9737 2.09074 16.3645 2.64767 17.6812ZM25.3203 12.6339C25.2666 11.2006 24.9581 9.8098 24.4012 8.49304C23.8067 7.08714 22.9555 5.82494 21.8717 4.74076C20.7876 3.65659 19.5254 2.80536 18.1195 2.21086C16.6641 1.59532 15.1182 1.2832 13.5247 1.2832C11.9311 1.2832 10.3852 1.59532 8.92984 2.21086C7.52394 2.80536 6.26174 3.65659 5.17756 4.74076C4.09339 5.82493 3.24216 7.08713 2.64767 8.49304C2.09074 9.8098 1.78222 11.2006 1.72852 12.6339H25.3203Z" fill="#576690"></path><path d="M8.57655 24.8012L8.70863 24.489L8.70859 24.489L8.57655 24.8012ZM4.53595 22.0768L4.77566 21.8371L4.77566 21.8371L4.53595 22.0768ZM1.81155 18.0357L2.12378 17.9037L2.12375 17.9036L1.81155 18.0357ZM1.81155 8.13905L2.12376 8.27113L2.12378 8.27109L1.81155 8.13905ZM4.53595 4.09845L4.77566 4.33816L4.77566 4.33816L4.53595 4.09845ZM8.57655 1.37405L8.70859 1.68628L8.70863 1.68626L8.57655 1.37405ZM18.4732 1.37405L18.3411 1.68625L18.3412 1.68628L18.4732 1.37405ZM22.5143 4.09845L22.2746 4.33816V4.33816L22.5143 4.09845ZM25.2387 8.13905L24.9265 8.27109L24.9265 8.27113L25.2387 8.13905ZM25.2387 18.0357L24.9265 17.9036L24.9265 17.9037L25.2387 18.0357ZM22.5143 22.0768L22.2746 21.8371H22.2746L22.5143 22.0768ZM18.4732 24.8012L18.3412 24.489L18.3411 24.489L18.4732 24.8012ZM2.64767 17.6812L2.9599 17.5492L2.95989 17.5492L2.64767 17.6812ZM5.17756 21.4335L4.93785 21.6732L4.9379 21.6733L5.17756 21.4335ZM8.92984 23.9629L9.0619 23.6507L9.06187 23.6507L8.92984 23.9629ZM18.1195 23.9629L17.9874 23.6507L17.9874 23.6507L18.1195 23.9629ZM21.8717 21.4335L22.1114 21.6733L22.1115 21.6732L21.8717 21.4335ZM24.4012 17.6812L24.089 17.5492L24.0889 17.5492L24.4012 17.6812ZM25.3203 13.5404L25.6591 13.5531L25.6723 13.2014H25.3203V13.5404ZM1.72852 13.5404V13.2014H1.37657L1.38975 13.5531L1.72852 13.5404ZM25.3203 12.6339V12.9729H25.6723L25.6591 12.6212L25.3203 12.6339ZM24.4012 8.49304L24.0889 8.62507L24.089 8.6251L24.4012 8.49304ZM21.8717 4.74076L22.1115 4.5011L22.1115 4.50105L21.8717 4.74076ZM18.1195 2.21086L17.9874 2.52309L17.9874 2.5231L18.1195 2.21086ZM8.92984 2.21086L9.06187 2.5231L9.0619 2.52309L8.92984 2.21086ZM5.17756 4.74076L4.93785 4.50105L4.93785 4.50105L5.17756 4.74076ZM2.64767 8.49304L2.95989 8.6251L2.9599 8.62507L2.64767 8.49304ZM1.72852 12.6339L1.38975 12.6212L1.37657 12.9729H1.72852V12.6339ZM8.70859 24.489C7.23513 23.8658 5.91241 22.9739 4.77566 21.8371L4.29624 22.3165C5.49442 23.5147 6.89015 24.4561 8.4445 25.1134L8.70859 24.489ZM4.77566 21.8371C3.63893 20.7004 2.74695 19.3772 2.12378 17.9037L1.49933 18.1678C2.15667 19.7221 3.09803 21.1183 4.29624 22.3165L4.77566 21.8371ZM2.12375 17.9036C1.47848 16.3788 1.1515 14.7589 1.1515 13.0876H0.473499C0.473499 14.8488 0.818355 16.5587 1.49936 18.1679L2.12375 17.9036ZM1.1515 13.0876C1.1515 11.4164 1.47847 9.7964 2.12376 8.27113L1.49935 8.00696C0.818357 9.61661 0.473499 11.3265 0.473499 13.0876H1.1515ZM2.12378 8.27109C2.74693 6.79763 3.63891 5.47491 4.77566 4.33816L4.29624 3.85874C3.09806 5.05692 2.15668 6.45265 1.49933 8.007L2.12378 8.27109ZM4.77566 4.33816C5.91241 3.20141 7.23513 2.30943 8.70859 1.68628L8.4445 1.06183C6.89016 1.71919 5.49442 2.66056 4.29624 3.85874L4.77566 4.33816ZM8.70863 1.68626C10.2339 1.04097 11.8539 0.714001 13.5251 0.714001V0.0359994C11.764 0.0359994 10.0541 0.380857 8.44446 1.06185L8.70863 1.68626ZM13.5251 0.714001C15.1964 0.714001 16.8163 1.04098 18.3411 1.68625L18.6054 1.06186C16.9962 0.380855 15.2863 0.0359994 13.5251 0.0359994V0.714001ZM18.3412 1.68628C19.8147 2.30944 21.1379 3.20143 22.2746 4.33816L22.754 3.85874C21.5558 2.66053 20.1596 1.71917 18.6053 1.06183L18.3412 1.68628ZM22.2746 4.33816C23.4113 5.47491 24.3033 6.79763 24.9265 8.27109L25.5509 8.007C24.8936 6.45266 23.9522 5.05692 22.754 3.85874L22.2746 4.33816ZM24.9265 8.27113C25.5718 9.7964 25.8988 11.4164 25.8988 13.0876H26.5768C26.5768 11.3265 26.2319 9.61661 25.5509 8.00696L24.9265 8.27113ZM25.8988 13.0876C25.8988 14.7589 25.5718 16.3788 24.9265 17.9036L25.5509 18.1679C26.2319 16.5587 26.5768 14.8488 26.5768 13.0876H25.8988ZM24.9265 17.9037C24.3033 19.3772 23.4113 20.7004 22.2746 21.8371L22.754 22.3165C23.9522 21.1183 24.8936 19.7221 25.5509 18.1678L24.9265 17.9037ZM22.2746 21.8371C21.1379 22.9738 19.8147 23.8658 18.3412 24.489L18.6053 25.1134C20.1596 24.4561 21.5558 23.5147 22.754 22.3165L22.2746 21.8371ZM18.3411 24.489C16.8163 25.1343 15.1964 25.4613 13.5251 25.4613V26.1393C15.2863 26.1393 16.9962 25.7944 18.6054 25.1134L18.3411 24.489ZM13.5251 25.4613C11.8539 25.4613 10.2339 25.1343 8.70863 24.489L8.44446 25.1134C10.0541 25.7944 11.764 26.1393 13.5251 26.1393V25.4613ZM2.33543 17.8133C2.94703 19.2596 3.82297 20.5583 4.93785 21.6732L5.41727 21.1938C4.36381 20.1403 3.53729 18.9146 2.9599 17.5492L2.33543 17.8133ZM4.9379 21.6733C6.05276 22.7877 7.35146 23.6636 8.79782 24.2752L9.06187 23.6507C7.69641 23.0733 6.4707 22.2468 5.41722 21.1938L4.9379 21.6733ZM8.79779 24.2752C10.2953 24.9085 11.8861 25.2296 13.5247 25.2296V24.5516C11.9761 24.5516 10.4751 24.2484 9.0619 23.6507L8.79779 24.2752ZM13.5247 25.2296C15.1632 25.2296 16.7541 24.9085 18.2515 24.2752L17.9874 23.6507C16.5742 24.2484 15.0732 24.5516 13.5247 24.5516V25.2296ZM18.2515 24.2752C19.6978 23.6636 20.9965 22.7877 22.1114 21.6733L21.6321 21.1938C20.5786 22.2468 19.3529 23.0733 17.9874 23.6507L18.2515 24.2752ZM22.1115 21.6732C23.2259 20.5583 24.1018 19.2596 24.7134 17.8133L24.0889 17.5492C23.5116 18.9147 22.685 20.1404 21.632 21.1939L22.1115 21.6732ZM24.7134 17.8133C25.2864 16.4585 25.6039 15.0272 25.6591 13.5531L24.9816 13.5277C24.9294 14.9201 24.6298 16.2704 24.089 17.5492L24.7134 17.8133ZM25.3203 13.2014H1.72852V13.8794H25.3203V13.2014ZM1.38975 13.5531C1.44499 15.0272 1.76244 16.4585 2.33545 17.8133L2.95989 17.5492C2.41904 16.2704 2.11945 14.9201 2.06728 13.5277L1.38975 13.5531ZM25.6591 12.6212C25.6039 11.147 25.2864 9.71576 24.7134 8.36098L24.089 8.6251C24.6298 9.90384 24.9294 11.2542 24.9816 12.6466L25.6591 12.6212ZM24.7134 8.36101C24.1018 6.91466 23.2259 5.61597 22.1115 4.5011L21.632 4.98042C22.685 6.0339 23.5116 7.25961 24.0889 8.62507L24.7134 8.36101ZM22.1115 4.50105C20.9966 3.38616 19.6979 2.51023 18.2515 1.89863L17.9874 2.5231C19.3529 3.10048 20.5786 3.92701 21.632 4.98047L22.1115 4.50105ZM18.2515 1.89864C16.7541 1.26527 15.1632 0.944203 13.5247 0.944203V1.6222C15.0732 1.6222 16.5742 1.92537 17.9874 2.52309L18.2515 1.89864ZM13.5247 0.944203C11.8861 0.944203 10.2953 1.26527 8.79779 1.89864L9.0619 2.52309C10.4751 1.92537 11.9761 1.6222 13.5247 1.6222V0.944203ZM8.79781 1.89863C7.35146 2.51023 6.05274 3.38616 4.93785 4.50105L5.41727 4.98047C6.47073 3.92701 7.69642 3.10048 9.06187 2.5231L8.79781 1.89863ZM4.93785 4.50105C3.82297 5.61593 2.94703 6.91465 2.33543 8.36101L2.9599 8.62507C3.53729 7.25961 4.36381 6.03392 5.41727 4.98047L4.93785 4.50105ZM2.33545 8.36098C1.76244 9.71576 1.44499 11.147 1.38975 12.6212L2.06728 12.6466C2.11945 11.2542 2.41904 9.90384 2.95989 8.6251L2.33545 8.36098ZM1.72852 12.9729H25.3203V12.2949H1.72852V12.9729Z" fill="#576690"></path></svg> 