<svg width="80" height="80" viewBox="0 0 80 80" fill="none" xmlns="http://www.w3.org/2000/svg">
<circle cx="40" cy="40" r="40" fill="#ACE2E4"/>
<path fill-rule="evenodd" clip-rule="evenodd" d="M21.8769 54.4111C21.199 54.4111 20.5915 54.0607 20.2529 53.4734C19.9143 52.8862 19.9143 52.1853 20.2535 51.5986L38.2439 20.4377C38.5831 19.8504 39.1901 19.5 39.8679 19.5C40.5451 19.5 41.1526 19.8504 41.4918 20.4377L59.4817 51.598C59.8209 52.1853 59.8215 52.8862 59.4828 53.4734C59.1436 54.0607 58.5367 54.4111 57.8589 54.4111H21.8769ZM39.3262 21.0627L21.3363 52.2235C21.2232 52.4193 21.2227 52.6527 21.3357 52.8479C21.4482 53.0437 21.6507 53.1607 21.8769 53.1607H57.8589C58.0844 53.1607 58.2869 53.0442 58.4 52.8485C58.5125 52.6527 58.5125 52.4193 58.3995 52.2235L40.4096 21.0632C40.2959 20.8669 40.0934 20.7499 39.8679 20.7499C39.6418 20.7499 39.4392 20.8669 39.3262 21.0627L39.3262 21.0627ZM39.2429 47.5623V41.9709H33.6517C33.3069 41.9709 33.0267 41.6914 33.0267 41.346C33.0267 41.0012 33.3069 40.721 33.6517 40.721H39.2429V35.1308C39.2429 34.7854 39.5225 34.5059 39.8679 34.5059C40.2127 34.5059 40.4928 34.7854 40.4928 35.1308V40.721H46.0835C46.4289 40.721 46.709 41.0012 46.709 41.346C46.709 41.6914 46.4289 41.9709 46.0835 41.9709H40.4928V47.5623C40.4928 47.9077 40.2127 48.1873 39.8679 48.1873C39.5225 48.1873 39.2429 47.9077 39.2429 47.5623Z" fill="#2E4985"/>
</svg>
