<?xml version="1.0" encoding="UTF-8"?> <svg xmlns="http://www.w3.org/2000/svg" width="60" height="60" viewBox="0 0 60 60" fill="none"><rect y="7.49829" width="60" height="51.6667" fill="#ACE2E4"></rect><rect y="7.49829" width="60" height="15" fill="#2E4985"></rect><path d="M6.66687 7.49829H14.167V11.2483C14.167 13.3194 12.488 14.9984 10.4169 14.9984C8.34582 14.9984 6.66687 13.3194 6.66687 11.2483V7.49829Z" fill="#ACE2E4"></path><path d="M14.167 7.5001H6.66687L6.66687 3.75005C6.66687 1.67896 8.34582 1.81061e-07 10.4169 0C12.488 -1.81061e-07 14.167 1.67895 14.167 3.75005V7.5001Z" fill="#2492A5"></path><path d="M52.5006 7.5001H45.0005L45.0005 3.75005C45.0005 1.67896 46.6794 1.81061e-07 48.7505 0C50.8216 -1.81061e-07 52.5006 1.67895 52.5006 3.75005V7.5001Z" fill="#2492A5"></path><path d="M45 7.49829H52.5001V11.2483C52.5001 13.3194 50.8211 14.9984 48.75 14.9984C46.679 14.9984 45 13.3194 45 11.2483V7.49829Z" fill="#ACE2E4"></path><path fill-rule="evenodd" clip-rule="evenodd" d="M33.7175 27.8574C34.9011 26.698 36.8005 26.7176 37.9599 27.9011L47.1437 37.2763C48.2863 38.4426 48.2863 40.3086 47.1437 41.4749L37.9599 50.8501C36.8005 52.0337 34.9011 52.0532 33.7175 50.8938C32.5339 49.7344 32.5143 47.835 33.6738 46.6514L37.8623 42.3756H15.0002C13.3434 42.3756 12.0002 41.0325 12.0002 39.3756C12.0002 37.7188 13.3434 36.3756 15.0002 36.3756H37.8623L33.6738 32.0998C32.5143 30.9162 32.5339 29.0168 33.7175 27.8574Z" fill="#2492A5"></path></svg> 