<svg width="80" height="80" viewBox="0 0 80 80" fill="none" xmlns="http://www.w3.org/2000/svg">
<circle cx="40" cy="40" r="40" fill="#ACE2E4"/>
<path fill-rule="evenodd" clip-rule="evenodd" d="M31.2498 57C29.8716 57 28.75 55.8784 28.75 54.5002V24.4998C28.75 23.1216 29.8716 22 31.2498 22H48.5928C49.9709 22 51.0925 23.1216 51.0925 24.4998V54.5002C51.0925 55.8784 49.9709 57 48.5928 57H31.2498ZM29.9999 24.4998V54.5002C29.9999 55.1893 30.5607 55.7501 31.2498 55.7501H48.5928C49.2818 55.7501 49.8427 55.1893 49.8427 54.5002V24.4998C49.8427 23.8107 49.2818 23.2499 48.5928 23.2499H31.2498C30.5607 23.2499 29.9999 23.8107 29.9999 24.4998ZM35.703 28.2909C35.3576 28.2909 35.0775 28.0108 35.0775 27.666C35.0775 27.3206 35.3576 27.041 35.703 27.041H44.1394C44.4848 27.041 44.7649 27.3206 44.7649 27.666C44.7649 28.0108 44.4848 28.2909 44.1394 28.2909H35.703Z" fill="#2E4985"/>
</svg>
