<?xml version="1.0" encoding="UTF-8"?> <svg xmlns="http://www.w3.org/2000/svg" width="26" height="25" viewBox="0 0 26 25" fill="none"><path fill-rule="evenodd" clip-rule="evenodd" d="M8.24655 23.1706C6.83393 22.573 5.5647 21.7176 4.47511 20.628C3.38551 19.5384 2.53009 18.2695 1.93247 16.8565C1.31387 15.394 1 13.8399 1 12.2381C1 10.6363 1.31387 9.08256 1.93247 7.61959C2.53008 6.20698 3.38551 4.93775 4.47511 3.84815C5.5647 2.75856 6.83392 1.90313 8.24655 1.30551C9.70951 0.68692 11.2632 0.373047 12.865 0.373047C14.4668 0.373047 16.0209 0.68692 17.4835 1.30551C18.8965 1.90313 20.1653 2.75856 21.2549 3.84815C22.3445 4.93775 23.2 6.20697 23.7976 7.61959C24.4162 9.08256 24.73 10.6363 24.73 12.2381C24.73 13.8399 24.4162 15.394 23.7976 16.8565C23.2 18.2695 22.3445 19.5384 21.2549 20.628C20.1653 21.7176 18.8965 22.573 17.4835 23.1706C16.0209 23.7892 14.4668 24.1031 12.865 24.1031C11.2632 24.1031 9.70951 23.7892 8.24655 23.1706ZM2.71326 16.5265C3.26816 17.8384 4.06257 19.0169 5.07437 20.0287C6.08616 21.0405 7.26461 21.8349 8.57655 22.3898C9.93501 22.9641 11.3778 23.2555 12.8651 23.2555C14.3525 23.2555 15.7952 22.9641 17.1537 22.3898C18.4657 21.8349 19.6441 21.0405 20.6559 20.0287C21.6677 19.0169 22.4621 17.8384 23.017 16.5265C23.5367 15.2974 23.8247 13.9994 23.8748 12.6616H1.85547C1.9056 13.9994 2.1936 15.2974 2.71327 16.5265H2.71326ZM23.8748 11.8146C23.8247 10.4769 23.5367 9.17884 23.017 7.94972C22.4621 6.63779 21.6677 5.45933 20.6559 4.44754C19.6441 3.43575 18.4657 2.64134 17.1537 2.08643C15.7953 1.51208 14.3525 1.2207 12.8651 1.2207C11.3778 1.2207 9.93503 1.51208 8.57656 2.08643C7.26462 2.64133 6.08616 3.43574 5.07437 4.44754C4.06258 5.45933 3.26817 6.63778 2.71327 7.94972C2.1936 9.17884 1.9056 10.4769 1.85547 11.8146H23.8748Z" fill="#576690"></path><path d="M8.24655 23.1706L8.11446 23.4828L8.11452 23.4829L8.24655 23.1706ZM4.47511 20.628L4.71482 20.3883H4.71482L4.47511 20.628ZM1.93247 16.8565L1.62024 16.9886L1.62024 16.9886L1.93247 16.8565ZM1.93247 7.61959L1.62025 7.48751L1.62023 7.48757L1.93247 7.61959ZM8.24655 1.30551L8.11452 0.993277L8.11446 0.993302L8.24655 1.30551ZM17.4835 1.30551L17.3514 1.61774L17.3514 1.61774L17.4835 1.30551ZM21.2549 3.84815L21.0152 4.08786V4.08786L21.2549 3.84815ZM23.7976 7.61959L24.1098 7.48757L24.1098 7.48751L23.7976 7.61959ZM23.7976 16.8565L23.4853 16.7245V16.7245L23.7976 16.8565ZM21.2549 20.628L21.0152 20.3883L21.2549 20.628ZM17.4835 23.1706L17.3514 22.8584L17.4835 23.1706ZM2.71326 16.5265V16.1875H2.2018L2.40104 16.6586L2.71326 16.5265ZM5.07437 20.0287L5.31408 19.789H5.31407L5.07437 20.0287ZM8.57655 22.3898L8.44449 22.702L8.44454 22.702L8.57655 22.3898ZM17.1537 22.3898L17.2857 22.702L17.2858 22.702L17.1537 22.3898ZM23.017 16.5265L23.3292 16.6586L23.3292 16.6585L23.017 16.5265ZM23.8748 12.6616L24.2136 12.6743L24.2267 12.3226H23.8748V12.6616ZM1.85547 12.6616V12.3226H1.50353L1.51671 12.6743L1.85547 12.6616ZM2.71327 16.5265V16.8655H3.22465L3.02551 16.3945L2.71327 16.5265ZM23.8748 11.8146V12.1536H24.2267L24.2136 11.8019L23.8748 11.8146ZM23.017 7.94972L23.3292 7.81771L23.3292 7.81766L23.017 7.94972ZM17.1537 2.08643L17.2858 1.77421L17.2857 1.77419L17.1537 2.08643ZM8.57656 2.08643L8.44454 1.77419L8.4445 1.77421L8.57656 2.08643ZM5.07437 4.44754L5.31408 4.68725L5.31408 4.68725L5.07437 4.44754ZM2.71327 7.94972L2.40104 7.81766L2.40103 7.81771L2.71327 7.94972ZM1.85547 11.8146L1.51671 11.8019L1.50353 12.1536H1.85547V11.8146ZM8.37863 22.8584C7.00637 22.2779 5.77365 21.4471 4.71482 20.3883L4.2354 20.8677C5.35575 21.988 6.66149 22.8681 8.11446 23.4828L8.37863 22.8584ZM4.71482 20.3883C3.65596 19.3294 2.82522 18.0971 2.24469 16.7245L1.62024 16.9886C2.23495 18.442 3.11506 19.7474 4.2354 20.8677L4.71482 20.3883ZM2.24469 16.7245C1.64392 15.304 1.339 13.7949 1.339 12.2381H0.660999C0.660999 13.8848 0.98383 15.4839 1.62024 16.9886L2.24469 16.7245ZM1.339 12.2381C1.339 10.6813 1.64391 9.17248 2.2447 7.75162L1.62023 7.48757C0.983836 8.99263 0.660999 10.5913 0.660999 12.2381H1.339ZM2.24468 7.75168C2.82522 6.37941 3.65598 5.1467 4.71482 4.08786L4.2354 3.60844C3.11504 4.7288 2.23494 6.03454 1.62025 7.48751L2.24468 7.75168ZM4.71482 4.08786C5.77365 3.02903 7.00636 2.19827 8.37863 1.61772L8.11446 0.993302C6.66149 1.608 5.35575 2.48809 4.2354 3.60844L4.71482 4.08786ZM8.37857 1.61775C9.79943 1.01696 11.3082 0.712047 12.865 0.712047V0.0340463C11.2182 0.0340463 9.61959 0.356883 8.11452 0.993277L8.37857 1.61775ZM12.865 0.712047C14.4218 0.712047 15.931 1.01696 17.3514 1.61774L17.6156 0.993289C16.1108 0.356877 14.5118 0.0340463 12.865 0.0340463V0.712047ZM17.3514 1.61774C18.724 2.19826 19.9564 3.02901 21.0152 4.08786L21.4946 3.60844C20.3743 2.48811 19.069 1.60799 17.6156 0.993289L17.3514 1.61774ZM21.0152 4.08786C22.0741 5.1467 22.9048 6.37941 23.4854 7.75168L24.1098 7.48751C23.4951 6.03453 22.615 4.7288 21.4946 3.60844L21.0152 4.08786ZM23.4853 7.75162C24.0861 9.17248 24.391 10.6813 24.391 12.2381H25.069C25.069 10.5913 24.7462 8.99263 24.1098 7.48757L23.4853 7.75162ZM24.391 12.2381C24.391 13.7949 24.0861 15.304 23.4853 16.7245L24.1098 16.9886C24.7462 15.4839 25.069 13.8848 25.069 12.2381H24.391ZM23.4853 16.7245C22.9048 18.0971 22.0741 19.3294 21.0152 20.3883L21.4946 20.8677C22.615 19.7474 23.4951 18.442 24.1098 16.9886L23.4853 16.7245ZM21.0152 20.3883C19.9564 21.4471 18.724 22.2779 17.3514 22.8584L17.6156 23.4828C19.069 22.8681 20.3743 21.988 21.4946 20.8677L21.0152 20.3883ZM17.3514 22.8584C15.931 23.4592 14.4218 23.7641 12.865 23.7641V24.4421C14.5118 24.4421 16.1108 24.1193 17.6156 23.4828L17.3514 22.8584ZM12.865 23.7641C11.3082 23.7641 9.79943 23.4592 8.37857 22.8584L8.11452 23.4829C9.61959 24.1192 11.2182 24.4421 12.865 24.4421V23.7641ZM2.40104 16.6586C2.97302 18.0109 3.79211 19.2258 4.83466 20.2684L5.31407 19.789C4.33302 18.8079 3.5633 17.666 3.02548 16.3944L2.40104 16.6586ZM4.83466 20.2684C5.8772 21.3109 7.09216 22.13 8.44449 22.702L8.70861 22.0776C7.43706 21.5397 6.29512 20.77 5.31408 19.789L4.83466 20.2684ZM8.44454 22.702C9.8451 23.2942 11.3328 23.5945 12.8651 23.5945V22.9165C11.4227 22.9165 10.0249 22.6341 8.70856 22.0775L8.44454 22.702ZM12.8651 23.5945C14.3975 23.5945 15.8852 23.2942 17.2857 22.702L17.0217 22.0775C15.7053 22.6341 14.3075 22.9165 12.8651 22.9165V23.5945ZM17.2858 22.702C18.6381 22.13 19.8531 21.3109 20.8956 20.2684L20.4162 19.789C19.4351 20.77 18.2932 21.5397 17.0217 22.0776L17.2858 22.702ZM20.8956 20.2684C21.9382 19.2258 22.7572 18.0109 23.3292 16.6586L22.7048 16.3944C22.167 17.666 21.3972 18.8079 20.4162 19.789L20.8956 20.2684ZM23.3292 16.6585C23.865 15.3914 24.1619 14.0529 24.2136 12.6743L23.536 12.6489C23.4874 13.9458 23.2084 15.2033 22.7048 16.3945L23.3292 16.6585ZM23.8748 12.3226H1.85547V13.0006H23.8748V12.3226ZM1.51671 12.6743C1.56837 14.0529 1.8653 15.3914 2.40103 16.6585L3.02551 16.3945C2.5219 15.2033 2.24283 13.9458 2.19423 12.6489L1.51671 12.6743ZM2.71327 16.1875H2.71326V16.8655H2.71327V16.1875ZM24.2136 11.8019C24.1619 10.4233 23.865 9.08481 23.3292 7.81771L22.7048 8.08174C23.2084 9.27288 23.4874 10.5304 23.536 11.8273L24.2136 11.8019ZM23.3292 7.81766C22.7572 6.46534 21.9382 5.25037 20.8956 4.20783L20.4162 4.68725C21.3972 5.66829 22.167 6.81024 22.7048 8.08178L23.3292 7.81766ZM20.8956 4.20783C19.8531 3.16529 18.6381 2.3462 17.2858 1.77421L17.0217 2.39865C18.2932 2.93648 19.4352 3.7062 20.4162 4.68725L20.8956 4.20783ZM17.2857 1.77419C15.8852 1.18203 14.3975 0.881703 12.8651 0.881703V1.5597C14.3075 1.5597 15.7054 1.84212 17.0217 2.39867L17.2857 1.77419ZM12.8651 0.881703C11.3328 0.881703 9.84512 1.18203 8.44454 1.77419L8.70857 2.39867C10.0249 1.84212 11.4228 1.5597 12.8651 1.5597V0.881703ZM8.4445 1.77421C7.09218 2.34619 5.8772 3.16528 4.83466 4.20783L5.31408 4.68725C6.29513 3.7062 7.43707 2.93647 8.70861 2.39865L8.4445 1.77421ZM4.83466 4.20783C3.79212 5.25037 2.97304 6.46533 2.40104 7.81766L3.02549 8.08178C3.56331 6.81023 4.33304 5.66829 5.31408 4.68725L4.83466 4.20783ZM2.40103 7.81771C1.8653 9.08481 1.56837 10.4233 1.51671 11.8019L2.19423 11.8273C2.24283 10.5304 2.5219 9.27288 3.02551 8.08174L2.40103 7.81771ZM1.85547 12.1536H23.8748V11.4756H1.85547V12.1536Z" fill="#576690"></path></svg> 