<?xml version="1.0" encoding="UTF-8"?> <svg xmlns="http://www.w3.org/2000/svg" width="35" height="25" viewBox="0 0 35 25" fill="none"><path fill-rule="evenodd" clip-rule="evenodd" d="M17.7186 23.1726C17.6247 23.1329 17.5315 23.092 17.4388 23.05C17.3462 23.092 17.2529 23.1329 17.159 23.1726C15.6963 23.7914 14.1425 24.105 12.5406 24.105C10.9387 24.105 9.38489 23.7914 7.92217 23.1726C6.50924 22.5751 5.24058 21.7197 4.15109 20.6297C3.06118 19.5402 2.20575 18.2712 1.60823 16.8582C0.989438 15.3955 0.675781 13.8417 0.675781 12.2398C0.675781 10.6379 0.989438 9.08411 1.60823 7.62139C2.20575 6.20846 3.06117 4.9398 4.15109 3.85031C5.24058 2.7604 6.50924 1.90497 7.92217 1.30745C9.38489 0.688657 10.9387 0.375 12.5406 0.375C14.1425 0.375 15.6963 0.688657 17.159 1.30745C17.2529 1.34717 17.3462 1.38807 17.4388 1.43005C17.5315 1.38807 17.6247 1.34717 17.7186 1.30745C19.1814 0.688657 20.7352 0.375 22.3371 0.375C23.9385 0.375 25.4923 0.688657 26.955 1.30745C28.368 1.90497 29.6371 2.76039 30.7266 3.85031C31.816 4.9398 32.6715 6.20846 33.2694 7.62139C33.8878 9.08411 34.2019 10.6379 34.2019 12.2398C34.2019 13.8417 33.8878 15.3955 33.2694 16.8582C32.6719 18.2712 31.816 19.5402 30.7266 20.6297C29.6371 21.7197 28.368 22.5751 26.955 23.1726C25.4923 23.7914 23.9385 24.105 22.3371 24.105C20.7352 24.105 19.1814 23.7914 17.7186 23.1726ZM22.3378 23.1591C23.8116 23.1591 25.2415 22.8705 26.5876 22.3011C27.8882 21.7508 29.056 20.9635 30.0587 19.9608C31.0614 18.9581 31.8487 17.7903 32.3985 16.4898C32.968 15.1436 33.2569 13.7137 33.2569 12.2395C33.2569 10.7653 32.968 9.3353 32.3985 7.98918C31.8487 6.68903 31.0614 5.52123 30.0587 4.51856C29.056 3.51547 27.8882 2.72856 26.5876 2.17829C25.2415 1.60886 23.8116 1.32031 22.3378 1.32031C21.0273 1.32031 19.7518 1.54836 18.5391 1.99897C19.4083 2.50846 20.2093 3.12773 20.9312 3.84997C22.0211 4.93946 22.8766 6.20812 23.4741 7.62105C24.0929 9.08378 24.4065 10.6376 24.4065 12.2395C24.4065 13.8414 24.0929 15.3952 23.4741 16.8579C22.8766 18.2708 22.0211 19.5399 20.9312 20.6294C20.2093 21.3516 19.4083 21.9709 18.5391 22.4804C19.7518 22.931 21.0273 23.1591 22.3378 23.1591H22.3378ZM8.2898 2.1785C6.98965 2.72879 5.82185 3.51568 4.81918 4.51878C3.81608 5.52145 3.02918 6.68925 2.47891 7.9894C1.90948 9.33552 1.62093 10.7655 1.62093 12.2397C1.62093 13.7139 1.90948 15.1439 2.47891 16.49C3.02876 17.7906 3.81608 18.9584 4.81918 19.961C5.82185 20.9637 6.98965 21.751 8.2898 22.3013C9.63592 22.8707 11.0659 23.1593 12.5401 23.1593C13.8505 23.1593 15.1261 22.9312 16.3388 22.4806C15.4695 21.9711 14.6686 21.3519 13.9466 20.6296C12.8567 19.5401 12.0013 18.271 11.4038 16.8581C10.785 15.3954 10.4713 13.8416 10.4713 12.2397C10.4713 10.6378 10.785 9.08399 11.4038 7.62127C12.0013 6.20834 12.8567 4.93968 13.9466 3.85019C14.6686 3.12795 15.4695 2.50868 16.3388 1.99919C15.1261 1.54857 13.8505 1.32053 12.5401 1.32053C11.0659 1.32053 9.63592 1.60908 8.2898 2.1785ZM14.6143 4.51902C13.6112 5.52169 12.8238 6.68949 12.274 7.98964C11.7046 9.33576 11.416 10.7657 11.416 12.2399C11.416 13.7141 11.7046 15.1441 12.274 16.4902C12.8238 17.7904 13.6112 18.9582 14.6143 19.9613C15.4475 20.7945 16.3947 21.4789 17.4374 22.0023C18.4801 21.4789 19.4272 20.7945 20.2605 19.9613C21.2631 18.9586 22.0505 17.7908 22.6007 16.4902C23.1702 15.1441 23.4587 13.7141 23.4587 12.2399C23.4587 10.7657 23.1702 9.33576 22.6007 7.98964C22.0505 6.68949 21.2631 5.52169 20.2605 4.51902C19.4273 3.68551 18.4801 3.00101 17.4375 2.47791C16.3948 3.00116 15.4475 3.68545 14.6143 4.51902Z" fill="#576690"></path><path d="M17.7186 23.1726L17.8507 22.8604L17.8507 22.8604L17.7186 23.1726ZM17.4388 23.05L17.5788 22.7412L17.4388 22.6778L17.2989 22.7412L17.4388 23.05ZM17.159 23.1726L17.027 22.8604L17.0269 22.8604L17.159 23.1726ZM7.92217 23.1726L8.05425 22.8604L8.05421 22.8604L7.92217 23.1726ZM4.15109 20.6297L4.39085 20.3901L4.39075 20.39L4.15109 20.6297ZM1.60823 16.8582L1.92046 16.7262L1.92045 16.7261L1.60823 16.8582ZM1.60823 7.62139L1.92045 7.75347L1.92046 7.75343L1.60823 7.62139ZM4.15109 3.85031L4.39075 4.09007L4.39085 4.08997L4.15109 3.85031ZM7.92217 1.30745L8.05421 1.61968L8.05425 1.61967L7.92217 1.30745ZM17.159 1.30745L17.0269 1.61967L17.027 1.61968L17.159 1.30745ZM17.4388 1.43005L17.2989 1.73882L17.4388 1.80225L17.5788 1.73882L17.4388 1.43005ZM17.7186 1.30745L17.8507 1.61968L17.8507 1.61967L17.7186 1.30745ZM26.955 1.30745L26.823 1.61967L26.823 1.61968L26.955 1.30745ZM30.7266 3.85031L30.4868 4.08997L30.4868 4.09002L30.7266 3.85031ZM33.2694 7.62139L33.5817 7.48939L33.5816 7.48927L33.2694 7.62139ZM33.2694 16.8582L33.5816 16.9903L33.5817 16.9902L33.2694 16.8582ZM30.7266 20.6297L30.4868 20.39L30.4868 20.3901L30.7266 20.6297ZM26.955 23.1726L26.823 22.8604L26.823 22.8604L26.955 23.1726ZM26.5876 22.3011L26.7197 22.6133L26.7197 22.6133L26.5876 22.3011ZM30.0587 19.9608L29.819 19.7211L29.819 19.7211L30.0587 19.9608ZM32.3985 16.4898L32.0863 16.3577L32.0863 16.3577L32.3985 16.4898ZM32.3985 7.98918L32.0863 8.12123L32.0863 8.12126L32.3985 7.98918ZM30.0587 4.51856L29.8189 4.75822L29.819 4.75827L30.0587 4.51856ZM26.5876 2.17829L26.7197 1.86608L26.7197 1.86607L26.5876 2.17829ZM18.5391 1.99897L18.421 1.6812L17.7511 1.93011L18.3676 2.29144L18.5391 1.99897ZM20.9312 3.84997L20.6915 4.08964L20.6916 4.08973L20.9312 3.84997ZM23.4741 7.62105L23.1619 7.75309L23.1619 7.75313L23.4741 7.62105ZM23.4741 16.8579L23.1619 16.7258L23.1619 16.7258L23.4741 16.8579ZM20.9312 20.6294L20.6916 20.3896L20.6915 20.3897L20.9312 20.6294ZM18.5391 22.4804L18.3676 22.1879L17.7511 22.5493L18.421 22.7982L18.5391 22.4804ZM8.2898 2.1785L8.15773 1.86629L8.15767 1.86631L8.2898 2.1785ZM4.81918 4.51878L5.05884 4.75854L5.05894 4.75844L4.81918 4.51878ZM2.47891 7.9894L2.16671 7.85727L2.16669 7.85733L2.47891 7.9894ZM2.47891 16.49L2.79115 16.358L2.79112 16.3579L2.47891 16.49ZM4.81918 19.961L5.05889 19.7213L5.05884 19.7213L4.81918 19.961ZM8.2898 22.3013L8.15767 22.6135L8.15773 22.6135L8.2898 22.3013ZM16.3388 22.4806L16.4569 22.7984L17.1267 22.5495L16.5102 22.1881L16.3388 22.4806ZM13.9466 20.6296L14.1864 20.39L14.1863 20.3899L13.9466 20.6296ZM11.4038 16.8581L11.716 16.7261L11.716 16.726L11.4038 16.8581ZM11.4038 7.62127L11.716 7.75335L11.716 7.75331L11.4038 7.62127ZM13.9466 3.85019L14.1863 4.08995L14.1864 4.08985L13.9466 3.85019ZM16.3388 1.99919L16.5102 2.29166L17.1267 1.93032L16.4569 1.68142L16.3388 1.99919ZM14.6143 4.51902L14.8539 4.75878L14.854 4.75868L14.6143 4.51902ZM12.274 7.98964L12.5862 8.12171L12.5862 8.12169L12.274 7.98964ZM12.274 16.4902L12.5862 16.3582L12.5862 16.3581L12.274 16.4902ZM17.4374 22.0023L17.2853 22.3052L17.4374 22.3816L17.5894 22.3052L17.4374 22.0023ZM22.6007 16.4902L22.9129 16.6223L22.913 16.6223L22.6007 16.4902ZM22.6007 7.98964L22.913 7.85757L22.9129 7.85751L22.6007 7.98964ZM20.2605 4.51902L20.0207 4.75868L20.0208 4.75873L20.2605 4.51902ZM17.4375 2.47791L17.5895 2.1749L17.4375 2.09862L17.2855 2.17492L17.4375 2.47791ZM17.8507 22.8604C17.7595 22.8218 17.6689 22.7821 17.5788 22.7412L17.2989 23.3587C17.394 23.4019 17.49 23.444 17.5866 23.4848L17.8507 22.8604ZM17.2989 22.7412C17.2088 22.7821 17.1181 22.8218 17.027 22.8604L17.291 23.4848C17.3877 23.444 17.4836 23.4019 17.5788 23.3587L17.2989 22.7412ZM17.0269 22.8604C15.6064 23.4613 14.0975 23.766 12.5406 23.766V24.444C14.1874 24.444 15.7862 24.1214 17.2911 23.4848L17.0269 22.8604ZM12.5406 23.766C10.9837 23.766 9.4748 23.4613 8.05425 22.8604L7.79009 23.4848C9.29498 24.1214 10.8937 24.444 12.5406 24.444V23.766ZM8.05421 22.8604C6.68171 22.2799 5.44958 21.4492 4.39085 20.3901L3.91133 20.8694C5.03158 21.9901 6.33677 22.8702 7.79013 23.4848L8.05421 22.8604ZM4.39075 20.39C3.33163 19.3313 2.5009 18.0987 1.92046 16.7262L1.29601 16.9903C1.91061 18.4436 2.79072 19.7492 3.91143 20.8695L4.39075 20.39ZM1.92045 16.7261C1.31949 15.3056 1.01478 13.7967 1.01478 12.2398H0.336781C0.336781 13.8867 0.659387 15.4854 1.29602 16.9903L1.92045 16.7261ZM1.01478 12.2398C1.01478 10.6829 1.31949 9.17402 1.92045 7.75347L1.29602 7.48931C0.659387 8.9942 0.336781 10.593 0.336781 12.2398H1.01478ZM1.92046 7.75343C2.50088 6.38093 3.3316 5.1488 4.39075 4.09007L3.91143 3.61055C2.79074 4.7308 1.91062 6.03599 1.29601 7.48935L1.92046 7.75343ZM4.39085 4.08997C5.44958 3.03083 6.68171 2.2001 8.05421 1.61968L7.79013 0.995225C6.33677 1.60984 5.03158 2.48997 3.91134 3.61065L4.39085 4.08997ZM8.05425 1.61967C9.4748 1.01871 10.9837 0.714001 12.5406 0.714001V0.0359994C10.8937 0.0359994 9.29498 0.358606 7.79009 0.995242L8.05425 1.61967ZM12.5406 0.714001C14.0975 0.714001 15.6064 1.01871 17.0269 1.61967L17.2911 0.995242C15.7862 0.358606 14.1874 0.0359994 12.5406 0.0359994V0.714001ZM17.027 1.61968C17.1181 1.65824 17.2088 1.69798 17.2989 1.73882L17.5788 1.12129C17.4836 1.07815 17.3877 1.0361 17.291 0.995225L17.027 1.61968ZM17.5788 1.73882C17.6689 1.69798 17.7595 1.65824 17.8507 1.61968L17.5866 0.995225C17.49 1.0361 17.394 1.07815 17.2989 1.12129L17.5788 1.73882ZM17.8507 1.61967C19.2713 1.01871 20.7801 0.714001 22.3371 0.714001V0.0359994C20.6902 0.0359994 19.0915 0.358606 17.5866 0.995242L17.8507 1.61967ZM22.3371 0.714001C23.8936 0.714001 25.4024 1.01871 26.823 1.61967L27.0871 0.995242C25.5822 0.358608 23.9835 0.0359994 22.3371 0.0359994V0.714001ZM26.823 1.61968C28.1955 2.20012 29.4281 3.03085 30.4868 4.08997L30.9663 3.61065C29.846 2.48994 28.5404 1.60982 27.0871 0.995225L26.823 1.61968ZM30.4868 4.09002C31.5456 5.14878 32.3764 6.38094 32.9572 7.75351L33.5816 7.48927C32.9666 6.03598 32.0865 4.73082 30.9663 3.6106L30.4868 4.09002ZM32.9572 7.75339C33.5578 9.17405 33.8629 10.6829 33.8629 12.2398H34.5409C34.5409 10.5929 34.2178 8.99418 33.5817 7.48939L32.9572 7.75339ZM33.8629 12.2398C33.8629 13.7967 33.5578 15.3056 32.9572 16.7262L33.5817 16.9902C34.2178 15.4854 34.5409 13.8867 34.5409 12.2398H33.8629ZM32.9572 16.7262C32.3768 18.0987 31.5456 19.3313 30.4868 20.39L30.9663 20.8694C32.0865 19.7492 32.967 18.4436 33.5816 16.9903L32.9572 16.7262ZM30.4868 20.3901C29.4281 21.4492 28.1955 22.2799 26.823 22.8604L27.0871 23.4848C28.5404 22.8702 29.846 21.9901 30.9663 20.8694L30.4868 20.3901ZM26.823 22.8604C25.4024 23.4613 23.8936 23.766 22.3371 23.766V24.444C23.9835 24.444 25.5822 24.1214 27.0871 23.4848L26.823 22.8604ZM22.3371 23.766C20.7801 23.766 19.2713 23.4613 17.8507 22.8604L17.5866 23.4848C19.0915 24.1214 20.6902 24.444 22.3371 24.444V23.766ZM22.3378 23.4981C23.8565 23.4981 25.3314 23.2006 26.7197 22.6133L26.4556 21.9889C25.1516 22.5405 23.7666 22.8201 22.3378 22.8201V23.4981ZM26.7197 22.6133C28.0607 22.0459 29.265 21.2339 30.2984 20.2005L29.819 19.7211C28.8471 20.693 27.7158 21.4557 26.4555 21.9889L26.7197 22.6133ZM30.2984 20.2005C31.3318 19.1671 32.1438 17.9628 32.7108 16.6218L32.0863 16.3577C31.5535 17.6179 30.7909 18.7492 29.819 19.7211L30.2984 20.2005ZM32.7108 16.6218C33.298 15.2336 33.5959 13.7587 33.5959 12.2395H32.9179C32.9179 13.6687 32.6379 15.0537 32.0863 16.3577L32.7108 16.6218ZM33.5959 12.2395C33.5959 10.7202 33.298 9.24535 32.7108 7.85711L32.0863 8.12126C32.6379 9.42525 32.9179 10.8103 32.9179 12.2395H33.5959ZM32.7108 7.85714C32.1438 6.51657 31.3318 5.31226 30.2984 4.27885L29.819 4.75827C30.7909 5.7302 31.5536 6.86149 32.0863 8.12123L32.7108 7.85714ZM30.2984 4.2789C29.265 3.24498 28.0606 2.43341 26.7197 1.86608L26.4555 2.49049C27.7158 3.02371 28.8471 3.78595 29.8189 4.75822L30.2984 4.2789ZM26.7197 1.86607C25.3314 1.2788 23.8565 0.981312 22.3378 0.981312V1.65931C23.7666 1.65931 25.1516 1.93891 26.4556 2.4905L26.7197 1.86607ZM22.3378 0.981312C20.9875 0.981312 19.6719 1.21637 18.421 1.6812L18.6571 2.31675C19.8316 1.88034 21.0671 1.65931 22.3378 1.65931V0.981312ZM18.3676 2.29144C19.2118 2.78618 19.9898 3.38765 20.6915 4.08964L21.171 3.61031C20.4288 2.86782 19.6049 2.23075 18.7105 1.70651L18.3676 2.29144ZM20.6916 4.08973C21.7507 5.14847 22.5814 6.38059 23.1619 7.75309L23.7863 7.48901C23.1717 6.03565 22.2916 4.73046 21.1709 3.61022L20.6916 4.08973ZM23.1619 7.75313C23.7628 9.17369 24.0675 10.6825 24.0675 12.2395H24.7455C24.7455 10.5926 24.4229 8.99387 23.7863 7.48897L23.1619 7.75313ZM24.0675 12.2395C24.0675 13.7964 23.7628 15.3053 23.1619 16.7258L23.7863 16.99C24.4229 15.4851 24.7455 13.8863 24.7455 12.2395H24.0675ZM23.1619 16.7258C22.5814 18.0984 21.7507 19.3309 20.6916 20.3896L21.1709 20.8692C22.2916 19.7489 23.1717 18.4433 23.7863 16.9899L23.1619 16.7258ZM20.6915 20.3897C19.9898 21.0917 19.2118 21.6932 18.3676 22.1879L18.7105 22.7729C19.6049 22.2486 20.4288 21.6116 21.171 20.8691L20.6915 20.3897ZM18.421 22.7982C19.6719 23.263 20.9875 23.4981 22.3378 23.4981V22.8201C21.0671 22.8201 19.8316 22.599 18.6571 22.1626L18.421 22.7982ZM22.3378 23.4981H22.3378V22.8201H22.3378V23.4981ZM8.15767 1.86631C6.81722 2.43365 5.6129 3.24521 4.57942 4.27912L5.05894 4.75844C6.0308 3.78616 7.16208 3.02392 8.42194 2.49069L8.15767 1.86631ZM4.57952 4.27902C3.54561 5.31249 2.73405 6.51682 2.16671 7.85727L2.7911 8.12153C3.32431 6.86167 4.08656 5.7304 5.05884 4.75854L4.57952 4.27902ZM2.16669 7.85733C1.57942 9.24563 1.28193 10.7205 1.28193 12.2397H1.95993C1.95993 10.8104 2.23953 9.42541 2.79112 8.12147L2.16669 7.85733ZM1.28193 12.2397C1.28193 13.7589 1.57942 15.2338 2.16669 16.622L2.79112 16.3579C2.23953 15.054 1.95993 13.669 1.95993 12.2397H1.28193ZM2.16666 16.622C2.73361 17.963 3.54565 19.1673 4.57952 20.2008L5.05884 19.7213C4.08652 18.7494 3.3239 17.6181 2.79115 16.358L2.16666 16.622ZM4.57947 20.2007C5.61288 21.2341 6.81717 22.0461 8.15767 22.6135L8.42194 21.9891C7.16213 21.4559 6.03082 20.6932 5.05889 19.7213L4.57947 20.2007ZM8.15773 22.6135C9.54603 23.2008 11.0209 23.4983 12.5401 23.4983V22.8203C11.1108 22.8203 9.72581 22.5407 8.42188 21.9891L8.15773 22.6135ZM12.5401 23.4983C13.8904 23.4983 15.2059 23.2632 16.4569 22.7984L16.2207 22.1628C15.0463 22.5993 13.8107 22.8203 12.5401 22.8203V23.4983ZM16.5102 22.1881C15.6661 21.6934 14.8881 21.0919 14.1864 20.39L13.7069 20.8693C14.4491 21.6118 15.2729 22.2488 16.1674 22.7731L16.5102 22.1881ZM14.1863 20.3899C13.1272 19.3311 12.2964 18.0986 11.716 16.7261L11.0916 16.9901C11.7062 18.4435 12.5863 19.7491 13.707 20.8694L14.1863 20.3899ZM11.716 16.726C11.115 15.3055 10.8103 13.7966 10.8103 12.2397H10.1323C10.1323 13.8865 10.4549 15.4853 11.0916 16.9902L11.716 16.726ZM10.8103 12.2397C10.8103 10.6828 11.115 9.1739 11.716 7.75335L11.0916 7.48919C10.4549 8.99408 10.1323 10.5928 10.1323 12.2397H10.8103ZM11.716 7.75331C12.2964 6.38081 13.1272 5.14868 14.1863 4.08995L13.707 3.61043C12.5863 4.73068 11.7062 6.03587 11.0916 7.48923L11.716 7.75331ZM14.1864 4.08985C14.8881 3.38787 15.6661 2.7864 16.5102 2.29166L16.1674 1.70672C15.2729 2.23096 14.4491 2.86803 13.7069 3.61053L14.1864 4.08985ZM16.4569 1.68142C15.2059 1.21659 13.8904 0.98153 12.5401 0.98153V1.65953C13.8107 1.65953 15.0463 1.88055 16.2207 2.31696L16.4569 1.68142ZM12.5401 0.98153C11.0209 0.98153 9.54603 1.27902 8.15773 1.86629L8.42188 2.49072C9.72581 1.93913 11.1108 1.65953 12.5401 1.65953V0.98153ZM14.3746 4.27926C13.3407 5.31269 12.5287 6.51702 11.9618 7.8576L12.5862 8.12169C13.119 6.86195 13.8816 5.73069 14.8539 4.75878L14.3746 4.27926ZM11.9618 7.85757C11.3745 9.24587 11.077 10.7208 11.077 12.2399H11.755C11.755 10.8107 12.0346 9.42565 12.5862 8.12171L11.9618 7.85757ZM11.077 12.2399C11.077 13.7591 11.3745 15.234 11.9618 16.6223L12.5862 16.3581C12.0346 15.0542 11.755 13.6692 11.755 12.2399H11.077ZM11.9618 16.6223C12.5287 17.9628 13.3407 19.1671 14.3746 20.201L14.854 19.7216C13.8816 18.7492 13.119 17.6179 12.5862 16.3582L11.9618 16.6223ZM14.3746 20.201C15.2332 21.0596 16.2099 21.7655 17.2853 22.3052L17.5894 21.6993C16.5794 21.1923 15.6617 20.5293 14.854 19.7216L14.3746 20.201ZM17.5894 22.3052C18.6648 21.7655 19.6415 21.0596 20.5002 20.201L20.0208 19.7216C19.213 20.5293 18.2953 21.1923 17.2853 21.6993L17.5894 22.3052ZM20.5002 20.201C21.5336 19.1676 22.3456 17.9633 22.9129 16.6223L22.2885 16.3581C21.7553 17.6183 20.9927 18.7496 20.0208 19.7216L20.5002 20.201ZM22.913 16.6223C23.5002 15.234 23.7977 13.7591 23.7977 12.2399H23.1197C23.1197 13.6692 22.8401 15.0542 22.2885 16.3581L22.913 16.6223ZM23.7977 12.2399C23.7977 10.7208 23.5002 9.24586 22.913 7.85757L22.2885 8.12171C22.8401 9.42565 23.1197 10.8107 23.1197 12.2399H23.7977ZM22.9129 7.85751C22.3456 6.51701 21.5336 5.31272 20.5002 4.27931L20.0208 4.75873C20.9927 5.73066 21.7553 6.86196 22.2886 8.12177L22.9129 7.85751ZM20.5002 4.27936C19.6416 3.42039 18.6649 2.71442 17.5895 2.1749L17.2855 2.78091C18.2954 3.2876 19.213 3.95064 20.0207 4.75868L20.5002 4.27936ZM17.2855 2.17492C16.2101 2.71456 15.2332 3.42029 14.3745 4.27936L14.854 4.75868C15.6617 3.95061 16.5795 3.28777 17.5896 2.78089L17.2855 2.17492Z" fill="#576690"></path></svg> 