<?xml version="1.0" encoding="UTF-8"?> <svg xmlns="http://www.w3.org/2000/svg" width="60" height="60" viewBox="0 0 60 60" fill="none"><path fill-rule="evenodd" clip-rule="evenodd" d="M60 24V30C60 33.9397 59.224 37.8407 57.7164 41.4805C56.2088 45.1203 53.999 48.4274 51.2132 51.2132L46.9706 55.4558L38.4853 46.9706L42.7279 42.7279C44.3994 41.0565 45.7253 39.0722 46.6298 36.8883C47.5344 34.7044 48 32.3638 48 30V24H60Z" fill="#ACE2E4"></path><path fill-rule="evenodd" clip-rule="evenodd" d="M36.8237 13.3436C34.3636 12.3357 31.7107 11.8853 29.0557 12.0248C26.4008 12.1643 23.8097 12.8901 21.4687 14.1502C19.1277 15.4103 17.0948 17.1733 15.5163 19.3125C13.9378 21.4518 12.8527 23.9141 12.3391 26.5226C11.8255 29.1312 11.8961 31.8211 12.5458 34.399C13.1956 36.977 14.4083 39.3791 16.0969 41.4326C17.7855 43.4861 19.908 45.14 22.3119 46.2755C24.7158 47.4111 27.3414 48 30 48H36V60H30C25.569 60 21.193 59.0185 17.1865 57.1259C13.18 55.2333 9.64248 52.4768 6.82816 49.0543C4.01384 45.6318 1.9926 41.6284 0.9097 37.3317C-0.1732 33.0351 -0.290871 28.5519 0.565142 24.2044C1.42116 19.8569 3.2296 15.7529 5.8605 12.1875C8.49141 8.62211 11.8795 5.68376 15.7812 3.58363C19.6829 1.48351 24.0013 0.273754 28.4262 0.0413098C32.8511 -0.191135 37.2726 0.559502 41.3729 2.23928L46.925 4.51385L42.3759 15.6181L36.8237 13.3436Z" fill="#ACE2E4"></path><path fill-rule="evenodd" clip-rule="evenodd" d="M34.2119 18.7635C32.0547 17.9549 29.7103 17.7843 27.4588 18.2722C25.2073 18.76 23.1438 19.8857 21.5147 21.5147L17.2721 25.7574L8.7868 17.2721L13.0294 13.0294C16.2875 9.7714 20.4145 7.52006 24.9176 6.54432C29.4207 5.56859 34.1094 5.90971 38.4239 7.52694C42.7383 9.14417 46.496 11.9692 49.2482 15.6645C52.0004 19.3598 53.6306 23.7692 53.9443 28.3661C54.258 32.963 53.2418 37.553 51.0172 41.5879C48.7925 45.6228 45.4534 48.9321 41.3986 51.1204C37.3439 53.3087 32.7449 54.2836 28.151 53.9287C23.5572 53.5737 19.1626 51.9039 15.4921 49.1186L10.7125 45.4916L17.9664 35.9323L22.7461 39.5593C24.5813 40.9519 26.7786 41.7869 29.0755 41.9643C31.3725 42.1418 33.6719 41.6544 35.6993 40.5602C37.7267 39.466 39.3962 37.8114 40.5086 35.794C41.6209 33.7765 42.129 31.4815 41.9722 29.183C41.8153 26.8846 41.0002 24.6799 39.6241 22.8322C38.248 20.9846 36.3692 19.5721 34.2119 18.7635Z" fill="#4C76AF"></path><path fill-rule="evenodd" clip-rule="evenodd" d="M53.2379 24C53.6056 25.4242 53.8433 26.8854 53.9443 28.3661C54.258 32.963 53.2418 37.553 51.0171 41.5879C48.9387 45.3575 45.8876 48.4938 42.189 50.6743L38.4853 46.9706L42.7279 42.7279C44.3994 41.0565 45.7253 39.0722 46.6298 36.8883C47.5344 34.7044 48 32.3638 48 30V24H53.2379Z" fill="#2E4985"></path><path fill-rule="evenodd" clip-rule="evenodd" d="M29.0557 12.0248C31.7107 11.8853 34.3636 12.3357 36.8237 13.3436L42.3759 15.6181L44.3615 10.7712C42.5546 9.42167 40.5573 8.32664 38.4239 7.52694C34.1094 5.90971 29.4207 5.56859 24.9176 6.54432C20.4145 7.52006 16.2875 9.7714 13.0294 13.0294L8.7868 17.2721L13.7574 22.2426C14.248 21.2154 14.8363 20.234 15.5163 19.3125C17.0948 17.1733 19.1277 15.4103 21.4687 14.1502C23.8097 12.8901 26.4008 12.1643 29.0557 12.0248ZM14.9617 39.8919L10.7125 45.4916L15.4921 49.1186C19.1626 51.9039 23.5572 53.5737 28.151 53.9287C30.8008 54.1334 33.4523 53.8957 36 53.2379V48H30C27.3414 48 24.7158 47.4111 22.3119 46.2755C19.908 45.14 17.7855 43.4861 16.0969 41.4326C15.6905 40.9384 15.3118 40.4241 14.9617 39.8919Z" fill="#2E4985"></path><circle cx="30" cy="30" r="7.2" fill="#ACE2E4"></circle></svg> 