<svg width="193" height="30" viewBox="0 0 193 30" fill="none" xmlns="http://www.w3.org/2000/svg">
<path fill-rule="evenodd" clip-rule="evenodd" d="M0.647949 0.995937H5.4217V29.0122H0.647949V0.995937ZM39.3248 18.9134L19.9317 0.564063V29.0116H24.5217V10.7853L43.9148 29.4447V0.995937H39.3248V18.9134ZM68.8279 13.4066L64.2848 11.7634C61.9436 10.9434 60.6117 10.1209 60.6117 8.06844C60.6117 5.78719 62.7242 4.69156 65.5692 4.69156C68.8736 4.69156 71.4448 5.92344 73.7848 7.70344V2.82031C71.5367 1.36094 68.6448 0.539062 65.4773 0.539062C60.2904 0.539062 55.9761 3.23094 55.9761 8.15906C55.9761 12.7672 58.8217 14.7753 62.5854 16.1441L66.6704 17.6047C69.1948 18.5628 70.6179 19.4303 70.6179 21.6197C70.6179 24.1291 68.3686 25.2703 65.1554 25.2703C61.8517 25.2703 58.7754 24.0847 56.2048 22.0303V27.0041C58.1792 28.3734 61.3917 29.4684 65.1554 29.4684C70.8942 29.4684 75.2536 26.6384 75.2536 21.5284C75.2536 17.4678 73.2348 15.0034 68.8279 13.4066ZM86.0079 0.995937H90.7811V29.0122H86.0079V0.995937ZM116.339 0.996563H105.529V29.0122H116.339C124.647 29.0122 130.017 23.5366 130.017 15.0034C130.017 6.47156 124.646 0.996563 116.339 0.996563ZM116.155 24.7697H110.303V5.19406H116.155C122.074 5.19406 125.242 8.98094 125.242 15.0034C125.242 20.9803 122.075 24.7697 116.155 24.7697ZM140.851 29.0122H157.947V24.7697H145.532V16.0872H156.662V11.9347H145.532V5.19344H157.947V0.995937H140.851V29.0122ZM182.722 17.4678C187.174 16.7834 189.274 14.0909 189.274 9.39094C189.274 3.91594 185.51 0.995937 179.68 0.995937H169.457V29.0122H174.23V17.6503H177.627L187.438 29.0122H192.854L182.722 17.4678ZM174.23 13.6803V5.10219H179.589C182.755 5.10219 184.546 6.79031 184.546 9.39094C184.546 11.9922 182.755 13.6803 179.589 13.6803H174.23Z" fill="#717788"/>
</svg>
