<svg width="50" height="50" viewBox="0 0 50 50" fill="none" xmlns="http://www.w3.org/2000/svg">
<path fill-rule="evenodd" clip-rule="evenodd" d="M0 25.0002C0 11.193 11.1928 0 24.9998 0C38.807 0 50 11.193 50 25.0002C50 38.807 38.807 50 24.9998 50C11.1928 50 0 38.807 0 25.0002ZM32.8187 25.0105C32.8187 21.2215 35.8903 18.1499 39.6792 18.1499C43.1118 18.1539 46.0135 20.694 46.4709 24.0966H42.5549C42.1678 22.877 41.0267 21.9935 39.6792 21.9935C38.0134 21.9941 36.6623 23.3446 36.6623 25.0111C36.6623 26.6769 38.0128 28.028 39.6792 28.028C41.0267 28.028 42.1672 27.1445 42.5549 25.9249H46.4703C46.0135 29.3263 43.1118 31.867 39.6792 31.871C35.8903 31.871 32.8187 28.7994 32.8187 25.0105ZM7.27236 25.0099C7.27236 26.6763 8.62282 28.0274 10.2893 28.0274C11.9551 28.0274 13.3062 26.6769 13.3062 25.0099C13.3062 23.344 11.9557 21.9929 10.2893 21.9929C8.62342 21.9929 7.27236 23.3434 7.27236 25.0099ZM17.1498 25.0105V31.755H13.3829V30.6047C12.5661 31.3944 11.4072 31.8692 10.2893 31.871C6.50036 31.871 3.42871 28.7994 3.42871 25.0105C3.42871 21.2215 6.50036 18.1499 10.2893 18.1499C14.0782 18.1499 17.1498 21.2215 17.1498 25.0105ZM27.9861 25.0111C27.9861 23.3446 26.6356 21.9935 24.9692 21.9935C23.3027 21.9935 21.9523 23.344 21.9523 25.0111C21.9523 26.6769 23.3027 28.028 24.9692 28.028C26.635 28.028 27.9861 26.6777 27.9861 25.0111ZM18.1086 25.0105V14.7734H21.9523V19.0861C22.8401 18.4845 23.9231 18.1515 24.9692 18.1499C28.7585 18.1499 31.8297 21.2215 31.8297 25.0105C31.8297 28.7994 28.7585 31.871 24.9692 31.871C21.1802 31.871 18.1086 28.7994 18.1086 25.0105Z" fill="#717788"/>
</svg>
