<svg width="120" height="30" viewBox="0 0 120 30" fill="none" xmlns="http://www.w3.org/2000/svg">
<path fill-rule="evenodd" clip-rule="evenodd" d="M72.9148 8.53251C71.0553 8.53251 69.5944 8.94462 68.1335 9.7704C68.1335 5.36755 68.1335 1.37681 68.2654 0L59.3658 1.65156V2.47733L60.2955 2.61471C61.4912 2.89022 61.8891 3.57786 62.155 5.22941C62.421 8.53252 62.2884 26.1462 62.155 29.0365C64.5464 29.5867 67.0704 29.9996 69.5944 29.9996C76.6345 29.9996 80.8854 25.4586 80.8854 18.3029C80.8854 12.6606 77.4316 8.53251 72.9148 8.53251ZM69.8597 28.4861C69.3285 28.4861 68.6647 28.4861 68.2654 28.3487C68.1336 26.4225 68.0002 18.3036 68.1336 11.1471C68.9299 10.8724 69.4611 10.7342 70.1256 10.7342C73.0474 10.7342 74.6417 14.3129 74.6417 18.7165C74.6417 24.2206 72.6496 28.4861 69.8597 28.4861Z" fill="#717788"/>
<path fill-rule="evenodd" clip-rule="evenodd" d="M72.9148 8.53251C71.0553 8.53251 69.5944 8.94462 68.1335 9.7704C68.1335 5.36755 68.1335 1.37681 68.2654 0L59.3658 1.65156V2.47733L60.2955 2.61471C61.4912 2.89022 61.8891 3.57786 62.155 5.22941C62.421 8.53252 62.2884 26.1462 62.155 29.0365C64.5464 29.5867 67.0704 29.9996 69.5944 29.9996C76.6345 29.9996 80.8854 25.4586 80.8854 18.3029C80.8854 12.6606 77.4316 8.53251 72.9148 8.53251ZM69.8597 28.4861C69.3285 28.4861 68.6647 28.4861 68.2654 28.3487C68.1336 26.4225 68.0002 18.3036 68.1336 11.1471C68.9299 10.8724 69.4611 10.7342 70.1256 10.7342C73.0474 10.7342 74.6417 14.3129 74.6417 18.7165C74.6417 24.2206 72.6496 28.4861 69.8597 28.4861Z" fill="#717788"/>
<path d="M23.379 0.532359H0V1.77188L1.32831 1.91022C3.05518 2.18532 3.7197 3.28807 3.98491 5.90623C4.38348 10.8667 4.25087 19.8231 3.98491 24.095C3.7197 26.7132 3.05517 27.9535 1.32831 28.091L0 28.3661V29.4689H15.0106V28.3661L13.4164 28.091C11.6895 27.9535 11.0257 26.7132 10.7598 24.095C10.6264 22.3029 10.4938 19.4097 10.4938 15.8271L13.6823 15.9647C15.6752 15.9647 16.6042 17.6184 17.0035 19.9607H18.1984V10.1774H17.0035C16.6042 12.5204 15.6752 14.1734 13.6823 14.1734L10.4938 14.3117C10.4938 9.62638 10.6264 5.21693 10.7598 2.59877H15.4085C18.9955 2.59877 20.8558 4.94104 22.1833 9.07539L23.5116 8.66196L23.379 0.532359Z" fill="#717788"/>
<path d="M23.379 0.532359H0V1.77188L1.32831 1.91022C3.05518 2.18532 3.7197 3.28807 3.98491 5.90623C4.38348 10.8667 4.25087 19.8231 3.98491 24.095C3.7197 26.7132 3.05517 27.9535 1.32831 28.091L0 28.3661V29.4689H15.0106V28.3661L13.4164 28.091C11.6895 27.9535 11.0257 26.7132 10.7598 24.095C10.6264 22.3029 10.4938 19.4097 10.4938 15.8271L13.6823 15.9647C15.6752 15.9647 16.6042 17.6184 17.0035 19.9607H18.1984V10.1774H17.0035C16.6042 12.5204 15.6752 14.1734 13.6823 14.1734L10.4938 14.3117C10.4938 9.62638 10.6264 5.21693 10.7598 2.59877H15.4085C18.9955 2.59877 20.8558 4.94104 22.1833 9.07539L23.5116 8.66196L23.379 0.532359Z" fill="#717788"/>
<path fill-rule="evenodd" clip-rule="evenodd" d="M31.8486 9.01161C38.4909 9.01161 41.812 13.5277 41.812 19.5062C41.812 25.2172 38.0923 30 31.4501 30C24.8086 30 21.4874 25.4839 21.4874 19.5062C21.4874 13.7936 25.2071 9.01161 31.8486 9.01161ZM31.4501 10.3392C28.5275 10.3392 27.7311 14.3241 27.7311 19.5054C27.7311 24.5527 29.0594 28.6709 31.7168 28.6709C34.7712 28.6709 35.5684 24.6853 35.5684 19.5054C35.5684 14.4574 34.24 10.3392 31.4501 10.3392Z" fill="#717788"/>
<path fill-rule="evenodd" clip-rule="evenodd" d="M31.8486 9.01161C38.4909 9.01161 41.812 13.5277 41.812 19.5062C41.812 25.2172 38.0923 30 31.4501 30C24.8086 30 21.4874 25.4839 21.4874 19.5062C21.4874 13.7936 25.2071 9.01161 31.8486 9.01161ZM31.4501 10.3392C28.5275 10.3392 27.7311 14.3241 27.7311 19.5054C27.7311 24.5527 29.0594 28.6709 31.7168 28.6709C34.7712 28.6709 35.5684 24.6853 35.5684 19.5054C35.5684 14.4574 34.24 10.3392 31.4501 10.3392Z" fill="#717788"/>
<path fill-rule="evenodd" clip-rule="evenodd" d="M84.2543 19.638C84.2543 14.1922 87.7081 9.01161 94.483 9.01161C100.062 9.01161 102.719 13.1299 102.719 18.5757H90.3647C90.2321 23.4911 92.6235 27.0774 97.4055 27.0774C99.531 27.0774 100.593 26.5463 101.922 25.6165L102.454 26.2803C101.124 28.1405 98.2026 30 94.483 30C88.5052 30 84.2543 25.7491 84.2543 19.638ZM90.3646 17.114L96.6083 16.9814C96.6083 14.3241 96.2098 10.3392 93.9517 10.3392C91.6929 10.3392 90.4972 14.0581 90.3646 17.114Z" fill="#717788"/>
<path fill-rule="evenodd" clip-rule="evenodd" d="M84.2543 19.638C84.2543 14.1922 87.7081 9.01161 94.483 9.01161C100.062 9.01161 102.719 13.1299 102.719 18.5757H90.3647C90.2321 23.4911 92.6235 27.0774 97.4055 27.0774C99.531 27.0774 100.593 26.5463 101.922 25.6165L102.454 26.2803C101.124 28.1405 98.2026 30 94.483 30C88.5052 30 84.2543 25.7491 84.2543 19.638ZM90.3646 17.114L96.6083 16.9814C96.6083 14.3241 96.2098 10.3392 93.9517 10.3392C91.6929 10.3392 90.4972 14.0581 90.3646 17.114Z" fill="#717788"/>
<path d="M118.527 10.0747C116.932 9.41017 114.807 9.01161 112.416 9.01161C107.502 9.01161 104.446 11.9334 104.446 15.3872C104.446 18.8417 106.704 20.3026 109.892 21.3656C113.213 22.5606 114.143 23.4911 114.143 25.0846C114.143 26.6789 112.948 28.1405 110.822 28.1405C108.299 28.1405 106.439 26.6789 104.977 22.6939L104.047 22.9599L104.181 28.8043C105.774 29.4688 108.697 30 111.221 30C116.401 30 119.722 27.3434 119.722 23.2251C119.722 20.4359 118.261 18.8416 114.807 17.5133C111.088 16.0524 109.76 15.1219 109.76 13.3951C109.76 11.6682 110.955 10.4725 112.549 10.4725C114.94 10.4725 116.534 11.9334 117.73 15.5205L118.659 15.2553L118.527 10.0747Z" fill="#717788"/>
<path d="M118.527 10.0747C116.932 9.41017 114.807 9.01161 112.416 9.01161C107.502 9.01161 104.446 11.9334 104.446 15.3872C104.446 18.8417 106.704 20.3026 109.892 21.3656C113.213 22.5606 114.143 23.4911 114.143 25.0846C114.143 26.6789 112.948 28.1405 110.822 28.1405C108.299 28.1405 106.439 26.6789 104.977 22.6939L104.047 22.9599L104.181 28.8043C105.774 29.4688 108.697 30 111.221 30C116.401 30 119.722 27.3434 119.722 23.2251C119.722 20.4359 118.261 18.8416 114.807 17.5133C111.088 16.0524 109.76 15.1219 109.76 13.3951C109.76 11.6682 110.955 10.4725 112.549 10.4725C114.94 10.4725 116.534 11.9334 117.73 15.5205L118.659 15.2553L118.527 10.0747Z" fill="#717788"/>
<path d="M59.9147 9.54245C57.6567 8.21415 53.671 8.87793 51.5456 13.6607L51.679 9.01128L42.7787 10.7382V11.5353L43.7084 11.6679C44.9041 11.8005 45.4353 12.465 45.5679 14.1919C45.8338 17.3804 45.7012 22.9596 45.5679 25.7488C45.4353 27.3431 44.9041 28.1402 43.7084 28.2728L42.7787 28.4054V29.4685H55.1327V28.4054L53.5384 28.2728C52.2101 28.1402 51.8116 27.3431 51.679 25.7488C51.413 23.2248 51.413 18.1775 51.5456 14.989C52.2101 14.0585 55.1327 13.2621 57.7886 14.989L59.9147 9.54245Z" fill="#717788"/>
<path d="M59.9147 9.54245C57.6567 8.21415 53.671 8.87793 51.5456 13.6607L51.679 9.01128L42.7787 10.7382V11.5353L43.7084 11.6679C44.9041 11.8005 45.4353 12.465 45.5679 14.1919C45.8338 17.3804 45.7012 22.9596 45.5679 25.7488C45.4353 27.3431 44.9041 28.1402 43.7084 28.2728L42.7787 28.4054V29.4685H55.1327V28.4054L53.5384 28.2728C52.2101 28.1402 51.8116 27.3431 51.679 25.7488C51.413 23.2248 51.413 18.1775 51.5456 14.989C52.2101 14.0585 55.1327 13.2621 57.7886 14.989L59.9147 9.54245Z" fill="#717788"/>
</svg>
