<svg width="178" height="30" viewBox="0 0 178 30" fill="none" xmlns="http://www.w3.org/2000/svg">
<path fill-rule="evenodd" clip-rule="evenodd" d="M23.8174 28.5044H15.3237V14.9325C15.3237 13.5081 14.3082 12.595 13.1187 12.595C11.9581 12.595 10.5583 13.5446 10.5583 14.9325V28.5044H2.93493V6.8828L0.476074 5.12967C3.29033 4.1801 7.9978 2.13485 10.5583 0.703125V12.0399C11.581 10.7615 14.0689 9.11799 17.2241 9.11799C21.2279 9.11799 22.947 11.7841 22.947 14.969V26.4226C22.947 26.7735 23.237 27.4599 23.8174 28.5044ZM111.358 28.5044H102.864V14.9325C102.864 13.5081 101.849 12.595 100.66 12.595C99.4989 12.595 98.0991 13.5446 98.0991 14.9325V28.5044H90.4758V6.8828L88.0169 5.12967C90.8312 4.1801 95.5386 2.13485 98.0991 0.703125V12.0399C99.1145 10.7615 101.602 9.11799 104.765 9.11799C108.769 9.11799 110.488 11.7841 110.488 14.969V26.4226C110.488 26.7735 110.778 27.4599 111.358 28.5044ZM42.386 25.2757V26.6271C40.696 28.0953 38.8246 29.3006 34.8135 29.3006C28.474 29.3006 24.6007 25.0201 24.6007 19.7462C24.6007 13.4569 28.5828 9.16919 34.4218 9.16919C40.2027 9.16919 42.386 13.1575 42.386 18.1757H31.8251C32.282 23.9537 35.4808 26.5906 38.4039 26.5906C39.811 26.5906 41.3996 26.1156 42.386 25.2757ZM34.0664 17.0362C35.7637 17.0362 35.9595 16.5469 35.9595 15.1151C35.9595 14.0194 35.7637 11.3167 34.0664 11.3167C32.3691 11.3167 32.1732 14.0194 32.1732 15.1151C32.1732 16.5468 32.369 17.0362 34.0664 17.0362ZM177.951 25.2685V26.6198C176.261 28.0881 174.39 29.2933 170.379 29.2933C164.039 29.2933 160.166 25.0128 160.166 19.7462C160.166 13.4496 164.148 9.16919 169.994 9.16919C175.768 9.16919 177.951 13.1575 177.951 18.1684H167.39C167.847 23.9537 171.046 26.5833 173.969 26.5833C175.376 26.5833 176.965 26.1084 177.951 25.2685ZM169.632 17.0289C171.329 17.0289 171.525 16.5471 171.525 15.1151C171.525 14.0194 171.329 11.3093 169.632 11.3093C167.934 11.3093 167.739 14.0194 167.739 15.1151C167.739 16.5468 167.934 17.0289 169.632 17.0289ZM63.9212 25.1077L64.7699 25.2901C64.3856 26.8606 63.2612 29.3003 59.6417 29.3003C56.6244 29.3003 55.7757 27.4304 55.1446 25.4581C54.6151 27.2843 52.548 29.3003 48.6166 29.3003C45.106 29.3003 43.1766 27.7298 43.1766 24.7642C43.1766 21.4698 46.3681 19.0519 54.3396 16.6706V13.201C54.3396 11.4041 53.3893 10.7832 52.3376 10.7832C51.3874 10.7832 49.8787 11.8059 49.8787 13.4201C49.8787 14.1871 50.0234 14.7715 50.1255 15.5385C50.1255 16.5246 49.0012 18.0294 47.2822 18.0294C45.3891 18.0294 44.4751 16.6414 44.4751 15.0271C44.4751 12.3902 46.8978 9.16886 53.2517 9.16886C59.8523 9.16886 61.9558 12.6823 61.9558 16.0498V24.9834C61.9558 25.5312 62.1732 26.0791 62.7682 26.0791C63.2903 26.0791 63.6531 25.7795 63.9214 25.1075L63.9212 25.1077ZM54.3758 24.4358V17.8032C51.7066 18.8916 50.7854 21.5943 50.7854 23.6688C50.7854 25.3415 51.3001 26.1085 52.5334 26.1085C53.6069 26.1085 54.3758 25.4146 54.3758 24.4358ZM74.8375 28.5044H66.0755V6.8828L63.7399 5.12967C66.4091 4.1801 71.3124 2.13485 73.7495 0.703125V26.4226C73.7495 26.7512 74.1122 27.4453 74.8375 28.5044ZM122.884 28.5044H114.114V6.8828L111.779 5.12967C114.448 4.1801 119.359 2.13485 121.796 0.703125V26.4226C121.796 26.7512 122.158 27.4453 122.884 28.5044ZM87.9878 26.2619V27.6132C86.7113 28.7163 84.5933 29.3006 82.3085 29.3006C78.5367 29.3006 77.2311 26.481 77.2311 24.0997V11.3824H75.4106L84.9632 2.93832V9.89956H87.9878V11.3824H84.9632V25.1662C84.9632 26.2619 85.6015 26.7732 86.3703 26.7732C86.8419 26.7732 87.6832 26.5543 87.9878 26.2617V26.2619ZM130.173 8.86968C128.005 8.86968 126.271 7.05805 126.271 4.78632C126.271 2.51459 128.005 0.703125 130.173 0.703125C132.342 0.703125 134.068 2.51459 134.068 4.78632C134.068 7.05805 132.342 8.86968 130.173 8.86968ZM135.302 28.5044H126.351V14.8886L123.892 13.1282C126.706 12.1787 131.428 10.126 133.996 8.69433V26.4226C133.996 26.7661 134.431 27.4599 135.302 28.5044ZM159.593 28.5044H150.824V14.8886C150.824 13.4642 149.815 12.5439 148.619 12.5439C147.458 12.5439 146.058 13.5007 146.058 14.8886V28.5044H138.435V14.8886L135.983 13.1282C138.79 12.1787 143.295 10.126 145.862 8.69433V12.4343C147.124 10.7469 149.569 9.05959 152.724 9.05959C156.728 9.05959 158.447 11.7403 158.447 14.9251V26.4226C158.447 26.7586 158.831 27.4526 159.593 28.5044Z" fill="#717788"/>
</svg>
