<svg width="90" height="39" viewBox="0 0 90 39" fill="none" xmlns="http://www.w3.org/2000/svg">
<path d="M33.4868 13.2793V25.707H36.3648H39.2428V17.6748C39.2428 13.2793 39.3213 9.72106 39.3998 9.82571C39.4783 9.9042 40.6295 13.4886 41.9638 17.7795L44.3447 25.5762L46.5686 25.6547L48.7925 25.707L51.1211 18.0673C52.4031 13.8549 53.5543 10.2182 53.659 10.0089C53.7898 9.79955 53.8945 13.227 53.8945 17.6486V25.707H56.7725H59.6504V13.2793V0.851585H55.4904H51.3566L50.4147 3.78191C49.8914 5.40406 48.8449 8.77917 48.0861 11.2385C47.3274 13.7241 46.6471 15.7649 46.5686 15.7649C46.4901 15.7649 45.8099 13.6718 45.025 11.1077C44.2401 8.56986 43.1935 5.22091 42.7226 3.65109L41.833 0.851585H37.673H33.4868V13.2793Z" fill="#717788"/>
<path d="M15.4598 1.79526C13.3406 2.37086 11.5615 3.4174 9.78233 5.17036C6.56421 8.33616 5.33452 12.7578 6.40723 17.2841C7.2183 20.7377 9.49453 23.9297 12.3202 25.6303C15.3029 27.4095 19.9861 27.7757 23.3351 26.5199C26.4747 25.3164 29.4312 22.4645 30.5824 19.4819C31.2627 17.8074 31.7598 14.6939 31.5505 13.5951L31.3935 12.7578L25.3235 12.8101L19.2274 12.8625L19.1489 15.348L19.0704 17.8336L21.7129 17.9121L24.3293 17.9905L23.5182 18.9848C22.3147 20.4499 20.8757 21.104 18.8088 21.104C17.4221 21.104 16.8727 20.9732 15.9046 20.3976C14.3086 19.4819 13.1574 18.0429 12.6865 16.4469C11.9016 13.8305 12.3202 11.7113 13.9424 9.85365C15.3552 8.25767 16.7157 7.60358 18.7041 7.57742C20.5094 7.57742 21.7391 8.0222 23.0735 9.19956L24.0154 10.0106H27.4428C29.3266 10.0106 30.8702 9.93215 30.8702 9.82749C30.8702 9.749 30.4516 8.91176 29.9283 7.99604C28.8295 6.0076 26.7102 3.86218 24.9311 2.89413C22.2624 1.42896 18.4425 0.984182 15.4598 1.79526Z" fill="#717788"/>
<path d="M70.2467 1.81981C69.6711 3.28497 61.2202 26.0212 61.2202 26.1258C61.2202 26.1781 62.6592 26.2305 64.4383 26.2305H67.6565L68.2582 24.399L68.8338 22.5676H72.863H76.8661L77.4155 24.399L77.9911 26.2305H81.2354C83.0407 26.2305 84.5058 26.1781 84.5058 26.1258C84.5058 26.0212 76.1596 3.6251 75.4794 1.81981C75.3224 1.45351 74.93 1.37502 72.863 1.37502C70.7961 1.37502 70.4036 1.45351 70.2467 1.81981ZM74.0142 13.4365C74.616 15.3726 75.0869 17.1255 75.0869 17.2825C75.0869 17.5965 70.8746 17.7535 70.5868 17.4395C70.4821 17.361 70.6391 16.6284 70.9008 15.8173C71.1886 15.0063 71.7118 13.2795 72.0781 12.0236C72.4706 10.7416 72.8107 9.74739 72.863 9.79971C72.9154 9.85204 73.4386 11.4742 74.0142 13.4365Z" fill="#717788"/>
<path d="M34.6639 28.5869C21.5821 29.2933 10.4626 31.0201 2.69197 33.5841C0.206427 34.3952 -0.866282 35.0755 0.80819 34.7615C3.21524 34.3167 9.86081 33.5318 14.6487 33.1393C21.242 32.5637 39.5827 32.4853 45.6526 32.9824C58.7606 34.0551 68.2842 35.7295 74.8774 38.0843L77.3891 39L80.9212 37.2209C83.1975 36.0697 85.3952 35.2063 87.2267 34.7092L90 33.9504L88.9011 33.4795C84.4795 31.5957 72.7058 29.6596 60.5659 28.8485C55.0454 28.4822 39.6612 28.3252 34.6639 28.5869Z" fill="#717788"/>
</svg>
