<svg width="202" height="30" viewBox="0 0 202 30" fill="none" xmlns="http://www.w3.org/2000/svg">
<path fill-rule="evenodd" clip-rule="evenodd" d="M95.8327 8.10691C95.8327 12.1605 95.4277 24.7298 95.4277 24.7298C95.4277 27.1622 96.2367 28.2442 98.5286 28.2442V29.325H89.497V28.2442C91.7889 28.2442 93.0019 27.1622 93.0019 24.7298L93.8108 4.18753C93.1369 2.56516 92.4629 2.02476 90.7099 1.88936V0.942796H97.5846L104.863 20.1346L112.276 0.942796H118.476V1.88936C116.725 1.88936 115.781 2.70055 115.781 4.59254L116.59 24.459C116.59 27.433 117.128 28.2442 119.554 28.2442V29.325H109.176V28.2442C111.198 28.2442 112.142 27.5684 112.007 24.459C112.007 24.459 111.602 10.5393 111.468 8.1069L106.48 21.8913C105.806 23.649 105.132 25.6764 104.593 27.838L102.976 27.9734C102.571 26.4876 101.493 23.7844 101.493 23.7844C101.493 23.7844 97.3146 12.0263 95.8327 8.10691Z" fill="#717788"/>
<path fill-rule="evenodd" clip-rule="evenodd" d="M87.2618 29.46C86.7218 29.3246 86.1828 29.3246 85.6439 29.3246C84.566 29.3246 82.678 29.865 80.3872 29.865C71.6256 29.865 65.156 24.5946 65.156 14.8649C65.156 6.62209 71.2217 0.269877 80.5222 0.269877C82.678 0.269877 85.1049 0.676 87.1268 1.48708C87.5307 1.08096 87.6658 0.811369 88.0697 0.405246H88.8787C88.7437 1.89206 88.2047 6.75631 88.2047 6.75631H87.3957C86.8568 3.91921 85.3738 2.02743 80.6572 2.02743C74.9955 2.02743 69.8738 6.48672 69.8738 14.7296C69.8738 24.0542 75.1305 28.1085 80.9261 28.1085C84.701 28.1085 86.9918 25.946 88.4748 23.2443L89.4176 23.6493L87.2618 29.46Z" fill="#717788"/>
<path fill-rule="evenodd" clip-rule="evenodd" d="M61.7157 6.21548H60.7717C60.6366 3.64789 59.8276 2.83791 57.8069 2.83791H53.8981V24.0544C53.8981 27.5685 54.5721 28.2442 56.8629 28.2442V29.325H46.7534V28.2442C49.0453 28.2442 49.7193 27.5685 49.7193 23.919V2.83791H45.8105C43.2497 2.83791 42.8446 3.51251 42.1707 6.21548H41.2278L41.9017 0.134939L42.5757 0.269171C42.8446 0.944912 43.3847 0.944912 45.0015 0.944912H58.0758C60.5016 0.944912 61.0417 0.944912 61.5806 0.134939H62.3896L61.7157 6.21548Z" fill="#717788"/>
<path fill-rule="evenodd" clip-rule="evenodd" d="M33.0216 30C31.1347 30 29.6529 29.7304 28.5739 29.3243C27.496 29.0535 26.687 28.6486 26.2831 28.3778C25.7442 28.9193 25.3391 29.595 25.3391 29.595L24.5301 29.3243L25.2041 22.9733L26.1481 23.1087C26.687 26.0811 28.7089 28.2436 32.8878 28.2436C36.1226 28.2436 38.2783 25.5408 38.2783 22.5672C38.2783 20.1351 37.3355 18.919 34.1007 16.4869C33.0216 15.8112 32.0788 15.2709 31.2698 14.5952C28.3039 12.7034 26.4181 10.5409 26.4181 7.02698C26.4181 2.97273 29.7868 0.269877 34.2357 0.269877C36.7965 0.269877 38.4134 1.08096 38.9523 1.35171L39.8963 0.269877L40.5703 0.405246L39.8963 6.2159L38.9523 6.08168C38.9523 3.37884 37.3355 2.16279 34.6396 2.16279C32.0788 2.16279 30.1919 3.51306 30.1919 6.08168C30.1919 8.37841 31.9437 9.8652 33.9656 11.2166C35.0435 11.8923 35.8525 12.4327 36.6615 12.973C41.3793 16.3516 42.4572 18.5141 42.4572 21.7572C42.4572 26.4872 38.8173 30 33.0216 30Z" fill="#717788"/>
<path fill-rule="evenodd" clip-rule="evenodd" d="M17.657 6.21584H16.5791C16.5791 3.78366 15.5001 2.83832 13.3432 2.83832H7.2786V13.5135H11.1874C13.2093 13.5135 13.6132 12.4328 13.8832 10.6752H14.8261V18.2437H13.8832C13.6132 16.2165 13.2093 15.4054 11.0524 15.4054H7.27861V24.4595C7.27861 27.8382 8.0876 28.2443 10.2434 28.2443V29.3251H0V28.2443C2.56084 28.2443 2.96477 27.5686 2.96477 24.4595V4.59477C2.96477 2.70294 2.15692 1.89183 0 1.89183V0.945342H14.0171C16.4441 0.945342 16.983 0.811119 17.3869 0H18.331L17.657 6.21584Z" fill="#717788"/>
<path fill-rule="evenodd" clip-rule="evenodd" d="M163.606 7.83571V24.0526C163.606 27.5667 164.415 28.2425 166.572 28.2425V29.3232H150.667V28.2425C151.88 28.2425 152.959 27.8363 152.959 27.0263C152.959 26.486 152.824 25.5395 152.554 24.593L151.341 20.6738H142.446C142.311 21.2142 140.693 25.6748 140.693 26.891C140.693 27.9717 141.907 28.2425 142.714 28.2425V29.3232H135.302V28.2425C136.649 28.2425 137.728 28.1071 138.671 25.2687L145.545 3.24083C145.141 2.29431 144.601 2.02471 143.658 1.88933V0.942814H149.723L157.002 24.0526C157.676 26.486 158.35 27.7021 159.429 28.2425C161.045 27.7021 161.449 27.1606 161.449 24.0526V4.59233C160.236 2.97007 160.103 1.88933 157.811 1.88933V0.942814H164.684L176.007 20.2688V5.53884C176.007 2.56507 175.333 1.88932 173.042 1.88932V0.942805H188.138V1.88932C187.194 1.88932 186.385 2.29431 186.385 3.24082C186.385 3.91657 186.655 4.59232 186.924 5.40345L191.238 14.7274L195.416 5.67306C196.089 4.45693 196.224 3.78118 196.224 3.10543C196.224 2.29431 195.685 1.88931 194.472 1.88931V0.942796H201.616V1.88931C199.864 1.88931 198.785 3.51042 197.976 5.40344L192.451 16.7547V24.188C192.451 27.4313 193.26 28.2425 195.416 28.2425V29.3232H185.172V28.2425C187.329 28.2425 188.138 27.4313 188.138 24.188V17.8366L182.207 5.26807C181.128 2.83582 180.724 2.29431 180.05 1.88932C178.702 2.42969 178.298 3.3762 178.298 5.53884V26.3506C178.298 26.3506 178.432 27.9717 178.567 29.8636L176.815 29.999L163.606 7.83571ZM146.758 6.48421L142.984 18.782H150.802L146.758 6.48421Z" fill="#717788"/>
<path fill-rule="evenodd" clip-rule="evenodd" d="M129.872 18.7831H127.85V24.5944C127.85 27.5684 128.658 28.2442 130.95 28.2442V29.325H120.572V28.2442C122.727 28.2442 123.536 27.433 123.536 24.459V5.40372C123.536 2.42977 122.727 1.88936 120.572 1.88936V0.942796H128.389C135.937 0.942796 140.384 3.24096 140.384 9.45733C140.384 15.9456 134.994 18.7831 129.872 18.7831ZM128.524 2.83549H127.85V16.7552H129.063C133.511 16.7552 135.802 14.7279 135.802 9.59228C135.802 4.4567 133.781 2.83549 128.524 2.83549Z" fill="#717788"/>
<path fill-rule="evenodd" clip-rule="evenodd" d="M82.6957 23.9328C77.574 23.9328 74.0703 20.2783 74.0703 14.9989C74.0703 9.99078 77.709 6.06514 82.6957 6.06514C87.5484 6.06514 91.1883 9.85517 91.1883 14.9989C91.1883 20.0071 87.4134 23.9328 82.6957 23.9328ZM82.6957 7.68973C79.192 7.68973 77.9791 11.0741 77.9791 14.9997C77.9791 18.6542 79.0569 22.3097 82.6957 22.3097C86.2005 22.3097 87.2796 18.6542 87.2796 14.8641C87.2796 11.2097 85.9316 7.68973 82.6957 7.68973Z" fill="#717788"/>
<path fill-rule="evenodd" clip-rule="evenodd" d="M23.1834 22.2722V21.3282C24.5302 21.3282 24.8002 20.9243 24.8002 20.5203C24.8002 19.9802 24.6652 19.5763 24.5302 19.1724C24.5302 19.1724 24.2613 18.0934 23.9912 17.2844H18.7345L18.1956 19.0374C18.0606 19.4413 17.9255 19.8464 17.9255 20.3853C17.9255 20.9243 18.4656 21.3282 19.2746 21.3282V22.2722H14.0168V21.3282C15.3647 21.3282 15.9048 20.9243 16.4437 19.4413L20.4875 7.31106C20.3525 6.77097 19.9474 6.36705 19.1396 6.36705V5.42418H23.4523C26.9571 15.6676 27.9 18.3634 27.9 18.3634C28.574 20.6542 29.2479 21.3282 30.327 21.3282V22.2722H23.1834ZM21.2954 9.19714L19.2746 15.8018H23.4523L21.2954 9.19714Z" fill="#717788"/>
</svg>
