<?xml version="1.0" encoding="utf-8"?>
<!-- Generator: Adobe Illustrator 26.5.0, SVG Export Plug-In . SVG Version: 6.00 Build 0)  -->
<svg version="1.1" id="Layer_1" xmlns="http://www.w3.org/2000/svg" xmlns:xlink="http://www.w3.org/1999/xlink" x="0px" y="0px"
	 width="47px" height="33px" viewBox="0 0 47 33" style="enable-background:new 0 0 47 33;" xml:space="preserve">
<style type="text/css">
	.st0{fill:#2E4985;}
</style>
<path class="st0" d="M9.9,14.1c2.9-0.3,5.4,0.4,7.3,2.2c2,1.8,2.8,4,2.5,6.7c-0.1,2.7-1,4.9-2.7,6.7c-1.7,1.8-3.8,2.6-6.3,2.6
	c-2.8,0-5.1-1-7-3s-2.8-4.6-2.8-7.8C1,17.2,2.4,13.3,5.1,10c2.7-3.5,5.9-6,9.6-7.7c1.2-0.8,2.1-0.8,2.4,0.2c0.2,0.3,0.1,0.7-0.4,1.2
	C12,7,9.7,10.5,9.9,14.1z M36.2,14.1c2.8-0.3,5.1,0.4,7,2.1s2.8,4,2.7,6.8c-0.1,2.7-1,4.9-2.8,6.7c-1.8,1.8-3.9,2.6-6.3,2.6
	c-2.7,0-5-1-6.9-3c-1.8-2-2.7-4.6-2.7-7.8c0-4.2,1.4-8,4.1-11.5s5.9-6.1,9.6-7.8c1.5-0.8,2.3-0.8,2.5,0.2c0.2,0.3,0.1,0.7-0.4,1.2
	C38.2,6.9,36,10.4,36.2,14.1z"/>
</svg>
