<svg width="101" height="16" viewBox="0 0 101 16" fill="none" xmlns="http://www.w3.org/2000/svg">
<path d="M8.47059 0L11.3499 4.9091L16.9412 6.11146L13.1294 10.3478L13.7057 16L8.47059 13.7091L3.23548 16L3.81176 10.3478L0 6.11146L5.59128 4.9091L8.47059 0Z" fill="#F5A376"/>
<path d="M29.4117 0L32.2911 4.9091L37.8823 6.11146L34.0706 10.3478L34.6469 16L29.4117 13.7091L24.1766 16L24.7529 10.3478L20.9412 6.11146L26.5324 4.9091L29.4117 0Z" fill="#F5A376"/>
<path d="M50.3529 0L53.2322 4.9091L58.8235 6.11146L55.0117 10.3478L55.588 16L50.3529 13.7091L45.1178 16L45.6941 10.3478L41.8823 6.11146L47.4736 4.9091L50.3529 0Z" fill="#F5A376"/>
<path d="M71.2941 0L74.1734 4.9091L79.7647 6.11146L75.9529 10.3478L76.5292 16L71.2941 13.7091L66.059 16L66.6353 10.3478L62.8235 6.11146L68.4148 4.9091L71.2941 0Z" fill="#F5A376"/>
<path d="M92.2353 0L95.1146 4.9091L100.706 6.11146L96.8941 10.3478L97.4704 16L92.2353 13.7091L87.0002 16L87.5764 10.3478L83.7647 6.11146L89.356 4.9091L92.2353 0Z" fill="#F5A376"/>
</svg>
